<svg width="72" height="72" viewBox="0 0 72 72" xmlns="http://www.w3.org/2000/svg">
    <defs>
        <filter color-interpolation-filters="auto" id="a">
            <feColorMatrix in="SourceGraphic" values="0 0 0 0 1.000000 0 0 0 0 1.000000 0 0 0 0 1.000000 0 0 0 1.000000 0"/>
        </filter>
    </defs>
    <g transform="translate(-70 -39)" filter="url(#a)" fill="none" fill-rule="evenodd">
        <g fill="#000" fill-rule="nonzero">
            <path d="m100.322 74.595-4.393-1.082-7.072-1.742v-2.994c6.884-1.593 11.786-7.61 11.786-14.68C100.643 45.773 93.769 39 85.32 39 76.874 39 70 45.773 70 54.097c0 7.07 4.902 13.086 11.786 14.681v7.65C80.693 75.55 79.318 75 77.8 75c-1.7 0-3.086 1.364-3.086 3.04 0 .47.113.94.325 1.36l1.409 2.777c.408.802.623 1.7.623 2.598v5.201c0 1.838.643 3.642 1.807 5.079l2.648 3.26c-1.37 2.3-2.097 4.9-2.097 7.581V111h21.214v-5.104c0-2.68-.727-5.283-2.098-7.582l2.648-3.26A8.09 8.09 0 0 0 103 89.975v-12c0-1.602-1.102-2.992-2.678-3.381zM81.786 61.064v1.197c-.645-1.983-1.059-4.421-1.155-7.004h9.38c-.097 2.583-.51 5.022-1.155 7.004v-1.197c0-1.92-1.586-3.484-3.535-3.484-1.95 0-3.535 1.563-3.535 3.484zm-3.015-1.161h-5a12.61 12.61 0 0 1-1.362-4.645h5.877c.055 1.63.216 3.192.485 4.645zm6.55-18.58c1.268 0 2.617 1.772 3.547 4.644h-7.094c.931-2.872 2.28-4.645 3.548-4.645zm4.148 6.967c.288 1.404.481 2.965.542 4.645h-9.379c.061-1.68.256-3.241.542-4.645h8.295zm8.757 4.645h-5.859a31.393 31.393 0 0 0-.482-4.645h4.97a12.504 12.504 0 0 1 1.371 4.645zm-5.87 2.323h5.877a12.622 12.622 0 0 1-1.362 4.645h-5c.27-1.453.432-3.015.486-4.645zm-14.08-2.323h-5.859c.153-1.66.633-3.227 1.372-4.645h4.969a31.25 31.25 0 0 0-.482 4.645zm11.397 13.2c.664-1.084 1.232-2.394 1.668-3.91h3.994a12.877 12.877 0 0 1-5.662 3.91zm5.642-20.167h-3.976c-.434-1.504-.987-2.813-1.64-3.88a13.02 13.02 0 0 1 5.616 3.88zm-14.37-3.88c-.654 1.067-1.207 2.376-1.64 3.88h-3.977a13.016 13.016 0 0 1 5.616-3.88zm-5.637 20.137h3.994c.435 1.515 1.004 2.826 1.668 3.91a12.876 12.876 0 0 1-5.662-3.91zm22.977 46.452h-16.5v-2.782c0-2.304.63-4.542 1.828-6.509h12.845a12.472 12.472 0 0 1 1.827 6.51v2.78zm2.358-18.702a5.777 5.777 0 0 1-1.292 3.628l-2.81 3.46H83.53l-2.811-3.46a5.775 5.775 0 0 1-1.292-3.628v-5.201a8.077 8.077 0 0 0-.87-3.636l-1.409-2.777a.7.7 0 0 1-.078-.322c0-.396.326-.717.728-.717 2.198 0 3.987 1.761 3.987 3.927v5.363h2.357V61.064c0-.64.528-1.161 1.178-1.161.65 0 1.179.521 1.179 1.16v25.55h2.357V74.163l2.357.58v11.868h2.357V75.325l2.357.581v10.706h2.358V76.487l1.463.361c.526.13.894.592.894 1.127v12zM142 57.223v-6.446l-3.063-.838c-.1-.268-.212-.535-.333-.799l1.576-2.76-4.559-4.559-2.761 1.575c-.265-.121-.53-.233-.798-.333L131.224 40h-6.447l-.838 3.063c-.267.1-.533.21-.798.333l-2.761-1.575-4.559 4.56 1.576 2.76c-.12.263-.233.53-.333.798l-3.064.838v6.446l3.063.838c.1.268.212.535.333.799l-1.576 2.76 4.559 4.559 2.761-1.575c.265.121.53.233.798.333l.838 3.063h6.447l.838-3.063c.267-.1.533-.21.798-.333l2.761 1.575 4.559-4.56-1.576-2.76c.12-.263.233-.53.333-.798l3.064-.838zm-4.73 4.006-2.041 2.041-2.309-1.317-.566.298a9.344 9.344 0 0 1-1.6.668l-.61.189-.702 2.559h-2.885l-.701-2.559-.612-.189a9.343 9.343 0 0 1-1.599-.667l-.566-.299-2.308 1.318-2.041-2.042 1.318-2.309-.3-.567a9.213 9.213 0 0 1-.668-1.597l-.188-.613-2.558-.7v-2.886l2.558-.7.188-.613c.168-.54.392-1.078.667-1.597l.301-.567-1.318-2.309 2.04-2.042 2.31 1.318.565-.299a9.344 9.344 0 0 1 1.6-.667l.61-.19.703-2.557h2.885l.701 2.558.612.189c.535.166 1.074.39 1.6.667l.565.299 2.309-1.318 2.04 2.042-1.318 2.309.301.567c.276.52.5 1.057.667 1.597l.188.613 2.559.7v2.886l-2.559.7-.188.613a9.391 9.391 0 0 1-.667 1.597l-.3.567 1.316 2.309z"/>
            <path d="M127.5 47a6.507 6.507 0 0 0-6.5 6.5c0 3.585 2.915 6.5 6.5 6.5s6.5-2.915 6.5-6.5-2.915-6.5-6.5-6.5zm0 10.833a4.338 4.338 0 0 1-4.333-4.333 4.338 4.338 0 0 1 4.333-4.333 4.338 4.338 0 0 1 4.333 4.333 4.338 4.338 0 0 1-4.333 4.333zM135.493 75.666a10.558 10.558 0 0 0-8.212-2.6c-4.727.535-8.593 4.345-9.193 9.058-.521 4.094 1.304 8.011 4.766 10.222.604.386.98 1.132.98 1.945v2.042A4.672 4.672 0 0 0 128.5 101a4.672 4.672 0 0 0 4.667-4.667v-2.09c0-.782.385-1.514 1.005-1.913A10.458 10.458 0 0 0 139 83.499c0-2.987-1.279-5.842-3.507-7.833zm-6.993 23a2.336 2.336 0 0 1-2.333-2.333h4.666a2.336 2.336 0 0 1-2.333 2.334zM127.333 83.5c0-.643.523-1.167 1.167-1.167s1.167.524 1.167 1.167-.523 1.167-1.167 1.167a1.168 1.168 0 0 1-1.167-1.167zm5.577 6.869c-1.233.793-1.987 2.138-2.063 3.632h-1.18v-7.215A3.495 3.495 0 0 0 132 83.499c0-1.93-1.57-3.5-3.5-3.5s-3.5 1.57-3.5 3.5c0 1.519.979 2.802 2.333 3.286V94h-1.184c-.087-1.508-.83-2.847-2.04-3.62-2.694-1.722-4.113-4.771-3.707-7.96.465-3.66 3.47-6.62 7.14-7.035a8.8 8.8 0 0 1 .967-.053c2.014 0 3.913.72 5.43 2.074a8.183 8.183 0 0 1 2.728 6.093 8.134 8.134 0 0 1-3.757 6.869zM102 52h10v3h-10zM110.897 47.4H114V45h-4.097l-3.6 3.6H102V51h5.297zM109.545 60H103v2.3h4.364V83H115v-2.3h-5.455z"/>
        </g>
    </g>
</svg>
