<?xml version="1.0" encoding="UTF-8"?>
<svg width="77px" height="68px" viewBox="0 0 77 68" version="1.1" xmlns="http://www.w3.org/2000/svg" xmlns:xlink="http://www.w3.org/1999/xlink">
    <title>noun-media-43767</title>
    <defs>
        <filter color-interpolation-filters="auto" id="filter-1">
            <feColorMatrix in="SourceGraphic" type="matrix" values="0 0 0 0 1.000000 0 0 0 0 1.000000 0 0 0 0 1.000000 0 0 0 1.000000 0"></feColorMatrix>
        </filter>
    </defs>
    <g id="Home" stroke="none" stroke-width="1" fill="none" fill-rule="evenodd">
        <g id="1-Home-new" transform="translate(-769.000000, -2121.000000)">
            <g id="Group-3" transform="translate(137.000000, 1589.000000)">
                <g id="noun-media-43767" transform="translate(564.000000, 500.000000)" filter="url(#filter-1)">
                    <g transform="translate(68.000000, 32.000000)">
                        <path d="M36.9947265,54.95 L36.9947265,55.0413464 L37.0052735,55.05 C36.9986329,55.0179504 36.9947265,54.9855793 36.9947265,54.95 L36.9947265,54.95 Z" id="Path" fill="#000000" fill-rule="nonzero"></path>
                        <path d="M37.0052735,55.0499975 L36.9947265,55.0413439 L36.9947265,54.95 C36.9947265,54.9852552 36.9986327,55.0176255 37.0052735,55.05 L37.0052735,55.0499975 Z" id="Path" fill="#000000" fill-rule="nonzero"></path>
                        <path d="M11.5,49 C9.0194973,49 7,46.9810842 7,44.5 C7,42.0194973 9.01891578,40 11.5,40 C13.9816658,40 16,42.0189158 16,44.5 C15.9994321,46.9810842 13.9810842,49 11.5,49 Z M11.5,42.0904436 C10.171124,42.0904436 9.0910251,43.17172 9.0910251,44.4994185 C9.0910251,45.8282945 10.1723016,46.9089749 11.5,46.9089749 C12.828876,46.9089749 13.9095564,45.8276984 13.9095564,44.4994185 C13.9095564,43.1716764 12.82828,42.0904436 11.5,42.0904436 Z" id="Shape" fill="#000000" fill-rule="nonzero"></path>
                        <path d="M26.6789074,20 C26.4051954,20 26.1415841,19.8962453 25.9471238,19.7117278 L23.3026652,17.1953874 C22.8991116,16.811385 22.8991116,16.1877833 23.3026652,15.8037946 C23.7062189,15.4197922 24.3621321,15.4197922 24.7651102,15.8037946 L26.6777707,17.6237909 L31.2348898,13.2880018 C31.6384434,12.9039994 32.2943566,12.9039994 32.6973348,13.2880018 C33.1008884,13.6720042 33.1008884,14.2956059 32.6973348,14.6795946 L27.4089932,19.7117278 C27.2167775,19.8957127 26.9531662,20 26.678893,20 L26.6789074,20 Z" id="Path" fill="#000000" fill-rule="nonzero"></path>
                        <path d="M55.8510562,17 L38.1489438,17 C37.5148631,17 37,16.5524098 37,16 C37,15.4481186 37.514256,15 38.1489438,15 L55.8510562,15 C56.4851369,15 57,15.4475902 57,16 C56.9987517,16.5518814 56.485744,17 55.8510562,17 Z" id="Path" fill="#000000" fill-rule="nonzero"></path>
                        <path d="M75.9012598,37.3224096 L66.4118204,37.3224096 L66.4118204,26.4062206 L67.8781285,25.856919 C67.9276619,25.8453482 67.9712278,25.8240332 68.0207596,25.8063728 L73.5558712,23.7492589 C73.8303962,23.648776 74.0553757,23.441105 74.175932,23.1719419 C74.2964884,22.9027788 74.3125957,22.5946248 74.2147237,22.3144863 L71.5017092,14.7155591 C71.2928325,14.1321463 70.6614356,13.8355758 70.0962828,14.0432359 L66.4111482,15.4104099 L66.411745,1.12114655 C66.411745,0.498758524 65.9170071,0 65.3130643,0 L14.3985929,0 C13.7946501,0 13.2999122,0.498758524 13.2999122,1.12114655 L13.2999122,32.9187173 L1.0986807,32.9187173 C0.488764258,32.9187173 0,33.4229636 0,34.0398639 L0,66.8788534 C0,67.5012415 0.488764258,68 1.0986807,68 L39.5358524,68 C39.5579333,68 39.5853858,68 39.6068693,67.994519 C39.6289501,68 39.6564026,68 39.6778861,68 L75.9013188,68 C76.5052616,68 77,67.5012415 77,66.8788534 L77,38.4440675 C77,37.8222875 76.5058575,37.322921 75.9019146,37.322921 L75.9012598,37.3224096 Z M67.2788301,39.5647339 L61.5509138,45.4097747 L51.3590057,45.4097747 L57.0869219,39.5647339 L67.2788301,39.5647339 Z M35.4828756,29.2868037 L44.8685794,25.8010129 L52.2060016,29.2978726 L42.8257978,32.7775833 L35.4828756,29.2868037 Z M37.9147803,32.918206 L29.9960416,32.918206 L29.4911593,31.5114488 L32.5610609,30.3683825 L32.5664319,30.3683825 L37.9147803,32.918206 Z M40.633753,37.3224657 L40.633753,35.9777634 L43.0769632,35.0697647 C43.1264966,35.0533218 43.1760299,35.0356613 43.2249659,35.0192185 L55.37792,30.4968419 C55.4274533,30.485271 55.4769867,30.468828 55.5205511,30.4462956 L64.2138693,27.2186769 L64.2138693,37.3224657 L40.633753,37.3224657 Z M40.8861865,39.5647339 L40.633753,39.8223292 L40.633753,39.5647339 L40.8861865,39.5647339 Z M55.1260747,28.2107749 L47.7837636,24.7193717 L57.3615081,21.1610869 L64.7091663,24.6524901 L55.1260747,28.2107749 Z M40.6337989,42.9939326 L43.9942823,39.5647339 L53.9785664,39.5647339 L48.2506502,45.4097747 L40.6339516,45.4097747 L40.6337989,42.9939326 Z M69.8172662,16.5375306 L71.7723537,22.0299233 L67.6264436,23.5706618 L60.2890214,20.0792586 L69.8172662,16.5375306 Z M15.4989227,2.24093988 L64.2164604,2.24093988 L64.2164604,16.2288465 L56.9673434,18.9248428 L44.6115015,23.5136332 C44.5679356,23.5252039 44.5184022,23.5416471 44.4688704,23.5641794 L32.3099581,28.0810995 C32.2604247,28.0975424 32.2055212,28.1152029 32.1559894,28.1371272 L29.5969742,29.0895889 L32.8977218,25.7163586 C33.331578,25.2791031 33.331578,24.5671967 32.8977218,24.1311571 C32.4692281,23.6939016 31.7775607,23.6939016 31.3490211,24.1311571 L26.5108783,29.0682304 L24.4787911,26.9945911 C24.0502974,26.5573355 23.3526564,26.5573355 22.9253543,26.9945911 C22.4968606,27.4373188 22.4968606,28.143753 22.9253543,28.5810398 L25.7314099,31.4499302 C25.9450533,31.6679422 26.2261478,31.7745161 26.5108172,31.7745161 C26.7417702,31.7745161 26.978101,31.7014375 27.1696681,31.5504084 L27.6584324,32.9175824 L15.4995201,32.9175824 L15.4989227,2.24093988 Z M2.1983077,35.159439 L38.4385458,35.159439 L38.4385458,53.5682307 L29.3000353,44.2483122 C28.8715415,43.8110566 28.1739005,43.8110566 27.7453763,44.2483122 L15.092383,57.1545776 L10.9464729,52.9238918 C10.7429739,52.7162316 10.4630711,52.5993059 10.1724434,52.5993059 C9.88181567,52.5993059 9.60072122,52.7174492 9.39303613,52.9238918 L2.19876603,60.2652705 L2.1983077,35.159439 Z M38.4385458,56.7408163 L38.4385458,65.7575073 L2.1983077,65.7581163 L2.1983077,63.4384651 L10.1718934,55.3018353 L14.3178035,59.5386012 C14.7295834,59.9588012 15.4600562,59.9588012 15.8724625,59.5386012 L28.5201085,46.6268793 L38.4380875,56.7409576 L38.4380875,56.567393 C38.4380875,56.6343821 38.4434585,56.6964977 38.4542008,56.7580131 L38.4385458,56.7408163 Z M40.6353266,57.6883983 L52.2505055,57.6883983 L52.2505055,65.7581465 L40.6353266,65.7581465 L40.6353266,57.6883983 Z M74.805436,65.7581465 L54.4478975,65.7581465 L54.4478975,57.6883983 L74.805436,57.6883983 L74.805436,65.7581465 Z M74.805436,55.446074 L40.6353266,55.446074 L40.6353266,47.6503997 L74.805436,47.6503997 L74.805436,55.446074 Z M74.805436,45.4099462 L64.6564583,45.4099462 L70.3897217,39.5649054 L74.8052832,39.5649054 L74.805436,45.4099462 Z" id="Shape" fill="#000000" fill-rule="nonzero"></path>
                    </g>
                </g>
            </g>
        </g>
    </g>
</svg>