<svg xmlns="http://www.w3.org/2000/svg" xmlns:xlink="http://www.w3.org/1999/xlink" width="24" height="24" viewBox="0 0 24 24"><defs><clipPath id="a"><rect width="24" height="24" fill="none"/></clipPath></defs><rect width="24" height="24" fill="none"/><g clip-path="url(#a)"><path d="M10,20c-2.712,0-3.06,0-4.12-.059a7.293,7.293,0,0,1-2.43-.471A4.81,4.81,0,0,1,1.68,18.32,4.727,4.727,0,0,1,.53,16.55a7.27,7.27,0,0,1-.47-2.43C0,13.06,0,12.712,0,10S0,6.94.06,5.88A7.27,7.27,0,0,1,.53,3.45,4.716,4.716,0,0,1,1.68,1.68,4.811,4.811,0,0,1,3.45.53,7.269,7.269,0,0,1,5.88.06C6.94,0,7.288,0,10,0s3.06,0,4.12.06a7.27,7.27,0,0,1,2.43.47,4.727,4.727,0,0,1,1.77,1.15A4.964,4.964,0,0,1,19.48,3.45a7.581,7.581,0,0,1,.461,2.43C20,6.94,20,7.288,20,10c0,1.674-.022,2.432-.04,3.041-.011.375-.02.672-.02,1.079a7.581,7.581,0,0,1-.461,2.43,4.88,4.88,0,0,1-1.159,1.77,4.735,4.735,0,0,1-1.77,1.149,7.293,7.293,0,0,1-2.43.471C13.06,20,12.712,20,10,20ZM6.04,18.1h0c1,.06,1.342.06,4,.06,2.6,0,2.984-.009,4-.06a5.6,5.6,0,0,0,1.86-.34,3.2,3.2,0,0,0,1.149-.75,3.081,3.081,0,0,0,.751-1.15A5.61,5.61,0,0,0,18.14,14c.05-1.02.059-1.408.059-4s-.009-2.981-.059-4a5.588,5.588,0,0,0-.34-1.9A3.04,3.04,0,0,0,17.05,3a3.078,3.078,0,0,0-1.19-.8A5.586,5.586,0,0,0,14,1.86c-1-.06-1.342-.06-4-.06-1.626,0-2.4.024-2.97.041-.362.011-.648.02-1.03.02A5.706,5.706,0,0,0,4.1,2.2,3.128,3.128,0,0,0,3,3,3.017,3.017,0,0,0,2.21,4.1,5.505,5.505,0,0,0,1.86,6C1.8,7,1.8,7.342,1.8,10c0,1.627.024,2.4.041,2.97.011.362.02.649.02,1.031a5.513,5.513,0,0,0,.4,1.9A3.024,3.024,0,0,0,3,17.05a3.245,3.245,0,0,0,1.1.751,5.718,5.718,0,0,0,1.83.3Zm3.971-2.97A5.13,5.13,0,0,1,10,4.87h.02a5.13,5.13,0,0,1-.009,10.26ZM10,6.67a3.33,3.33,0,1,0,1.275,6.406A3.331,3.331,0,0,0,13.33,10,3.331,3.331,0,0,0,10,6.67Zm5.343-.81a1.2,1.2,0,0,1-1.179-.966,1.2,1.2,0,1,1,1.179.966Z" transform="translate(2 2)" fill="#fff"/></g></svg>