<svg xmlns="http://www.w3.org/2000/svg" xmlns:xlink="http://www.w3.org/1999/xlink" width="24" height="24" viewBox="0 0 24 24"><defs><clipPath id="a"><rect width="24" height="24" fill="none"/></clipPath></defs><rect width="24" height="24" fill="none"/><g clip-path="url(#a)"><path d="M20,21.6H1.6A1.574,1.574,0,0,1,0,20.052V1.547A1.574,1.574,0,0,1,1.6,0H20a1.574,1.574,0,0,1,1.6,1.547v18.5A1.574,1.574,0,0,1,20,21.6ZM13.4,10.657c1.366,0,1.652,1.2,1.652,2.206v5.218h3.262V12.488A4.723,4.723,0,0,0,17.239,9.17,3.544,3.544,0,0,0,14.556,8.1a3.222,3.222,0,0,0-2.94,1.612V8.329H8.353c.043.9,0,9.663,0,9.752h3.262V12.633a2.113,2.113,0,0,1,.109-.79A1.782,1.782,0,0,1,13.4,10.657ZM3.285,8.329v9.752H6.548V8.329Zm1.652-4.7A1.69,1.69,0,1,0,4.9,7h.022a1.691,1.691,0,1,0,.021-3.37Z" transform="translate(1.086 1.346)" fill="#fff"/></g></svg>