<svg xmlns="http://www.w3.org/2000/svg" xmlns:xlink="http://www.w3.org/1999/xlink" width="24" height="24" viewBox="0 0 24 24"><defs><clipPath id="a"><rect width="24" height="24" fill="none"/></clipPath></defs><rect width="24" height="24" fill="none"/><g clip-path="url(#a)"><path d="M19.514,2.85a4.554,4.554,0,0,0,2-2.513,9.018,9.018,0,0,1-2.883,1.1,4.537,4.537,0,0,0-7.852,3.1,4.443,4.443,0,0,0,.117,1.036A12.861,12.861,0,0,1,1.538.83,4.547,4.547,0,0,0,2.948,6.9,4.433,4.433,0,0,1,.886,6.328v.056a4.542,4.542,0,0,0,3.642,4.453,4.568,4.568,0,0,1-1.2.159,4.281,4.281,0,0,1-.853-.084,4.545,4.545,0,0,0,4.242,3.155,9.1,9.1,0,0,1-5.639,1.945A9.2,9.2,0,0,1,0,15.947,12.685,12.685,0,0,0,6.947,18,12.836,12.836,0,0,0,19.87,5.072c0-.2,0-.394-.014-.586A9.238,9.238,0,0,0,22.12,2.133,9.175,9.175,0,0,1,19.514,2.85Z" transform="translate(0.942 3)" fill="#fff"/></g></svg>