<svg width="73" height="71" viewBox="0 0 73 71" xmlns="http://www.w3.org/2000/svg">
    <g fill="#FFF" fill-rule="nonzero">
        <path d="M68.102 14.208a1.06 1.06 0 0 0-1.32-.738 1.09 1.09 0 0 0-.723 1.347c.232.81.35 1.654.35 2.506a9.087 9.087 0 0 1-1.184 4.494 8.978 8.978 0 0 1-3.12 3.218l-.446.27c-.323.196-.52.55-.52.934v1.371H58.65v-4.415a3.032 3.032 0 0 0 1.96-2.848v-2.372c0-1.672-1.332-3.032-2.97-3.032h-.11c-1.636 0-2.968 1.36-2.968 3.032v2.372a3.03 3.03 0 0 0 1.96 2.847v4.416h-2.488V26.24c0-.383-.198-.738-.52-.934l-.446-.27a8.968 8.968 0 0 1-3.12-3.218 9.087 9.087 0 0 1-1.184-4.494c0-4.95 3.957-8.977 8.822-8.977 2.308 0 4.494.906 6.153 2.55a1.05 1.05 0 0 0 1.504-.022c.41-.43.4-1.118-.022-1.536-2.058-2.04-4.77-3.164-7.635-3.164-6.038 0-10.95 5.001-10.95 11.149 0 1.965.509 3.896 1.471 5.586a11.13 11.13 0 0 0 3.799 3.947v.93a1.739 1.739 0 0 0-.958 1.56v4.966c0 .956.763 1.734 1.7 1.734h1.582v1.527c0 1.042.83 1.89 1.85 1.89h3.011c1.02 0 1.852-.848 1.852-1.89v-1.527h1.581c.937 0 1.7-.778 1.7-1.734v-4.967c0-.685-.392-1.276-.958-1.558v-.931a11.13 11.13 0 0 0 3.798-3.947 11.354 11.354 0 0 0 1.037-8.7zm-11.41 3.767a.85.85 0 0 1 .84-.86h.11a.85.85 0 0 1 .84.86v2.372a.85.85 0 0 1-.84.86h-.11a.85.85 0 0 1-.84-.86v-2.372zm2.123 19.315h-2.457v-1.244h2.457v1.244zm3.28-3.416h-9.018v-4.091h9.019v4.091zM56.71 4.421c.727 0 1.315-.429 1.315-.957V1.875c0-.53-.588-.958-1.314-.958-.726 0-1.314.429-1.314.958v1.589c0 .528.588.957 1.314.957zM50.266 5.584c.217.37.694.59 1.194.59.179 0 .36-.028.535-.087.659-.226.954-.815.66-1.318l-.888-1.51c-.295-.502-1.07-.727-1.729-.502-.659.225-.955.815-.659 1.317l.887 1.51zM44.369 7.266l1.34 1.248c.206.192.464.288.72.288.298 0 .594-.127.808-.376a1.162 1.162 0 0 0-.085-1.593l-1.34-1.248a1.052 1.052 0 0 0-1.528.089 1.161 1.161 0 0 0 .085 1.592zM42.06 13.281l1.548.71c.1.045.2.067.299.067.413 0 .797-.378.93-.97.165-.736-.118-1.523-.632-1.758l-1.548-.71c-.514-.235-1.065.17-1.23.905-.165.735.119 1.521.633 1.756zM41.463 20.19c.035 0 .069-.002.104-.007l1.586-.217c.526-.072.907-.666.85-1.329-.057-.661-.53-1.14-1.058-1.068l-1.585.217c-.527.071-.907.667-.85 1.329.054.617.47 1.075.953 1.075zM43.639 24.02c-.487.343-.651 1.1-.368 1.689.19.393.531.613.882.613.174 0 .35-.054.513-.168l1.463-1.033c.487-.343.652-1.1.369-1.689-.284-.59-.908-.79-1.395-.446l-1.464 1.034zM61.427 6.086c.173.06.355.088.534.088.5 0 .977-.22 1.194-.59l.888-1.51c.295-.503 0-1.093-.66-1.317-.659-.225-1.434 0-1.729.502l-.886 1.51c-.296.503 0 1.092.659 1.317zM67.868 8.802c.256 0 .514-.096.72-.288l1.34-1.248a1.161 1.161 0 0 0 .086-1.592 1.052 1.052 0 0 0-1.528-.09l-1.34 1.249a1.162 1.162 0 0 0-.085 1.593c.213.249.51.376.807.376zM68.584 13.087c.134.593.518.97.931.97a.72.72 0 0 0 .3-.066l1.547-.71c.514-.235.797-1.021.633-1.756-.165-.735-.717-1.14-1.23-.904l-1.548.709c-.515.235-.798 1.022-.633 1.757zM72.062 17.786l-1.585-.216c-.528-.075-1 .406-1.058 1.067-.057.663.323 1.257.85 1.33l1.585.216c.036.005.07.007.105.007.483 0 .9-.458.953-1.075.057-.662-.323-1.257-.85-1.329zM70.659 24.02l-1.464-1.034c-.487-.343-1.111-.144-1.395.445-.284.59-.119 1.346.368 1.69l1.464 1.033a.885.885 0 0 0 .513.168c.35 0 .692-.22.882-.614.283-.589.118-1.346-.368-1.689zM11.801 25.446h10.976c.598 0 1.083-.588 1.083-1.314 0-.726-.485-1.314-1.083-1.314H11.801c-.598 0-1.082.588-1.082 1.314 0 .726.485 1.314 1.082 1.314zM7.399 52.603h20.657c.585 0 1.06-.588 1.06-1.314 0-.725-.475-1.314-1.06-1.314H7.399c-.585 0-1.06.589-1.06 1.314 0 .726.475 1.314 1.06 1.314zM42.256 42.09a6.14 6.14 0 0 0-6.132-6.131 6.139 6.139 0 0 0-6.132 6.132 6.139 6.139 0 0 0 6.132 6.132 6.14 6.14 0 0 0 6.132-6.132zm-6.133-4.063a4.069 4.069 0 0 1 4.058 3.85 4.13 4.13 0 0 1-.504.034 4.068 4.068 0 0 1-4.057-3.852c.165-.02.333-.032.503-.032zm-4.062 4.064a4.06 4.06 0 0 1 1.573-3.208c.494 2.89 3.015 5.096 6.043 5.096l.044-.001a4.067 4.067 0 0 1-3.598 2.177 4.068 4.068 0 0 1-4.062-4.064z"/>
        <path d="m61.428 58.206-5.4-2.932c-.717-.39-1.876-.684-2.694-.684H34.787v-3.374c.276.014.554.022.833.022 6.348 0 12.257-3.411 15.422-8.902a1.81 1.81 0 0 0 0-1.801c-3.165-5.49-9.074-8.901-15.422-8.901-.28 0-.557.008-.833.021V18.456c0-.976-.798-1.77-1.778-1.77H13.43c-.59 0-1.066.476-1.066 1.062 0 .587.477 1.062 1.066 1.062h19.224v13.074c-.764.13-1.514.308-2.249.534v-.928c0-.977-.797-1.77-1.777-1.77H6.365c-.98 0-1.777.793-1.777 1.77v14.798c0 .976.797 1.77 1.777 1.77h19.11a17.882 17.882 0 0 0 7.179 2.93v3.602H19.829a2.23 2.23 0 0 0-1.914 1.087H7.106c-.589 0-1.066.476-1.066 1.062 0 .587.477 1.062 1.066 1.062H17.6v2.913H7.106c-.589 0-1.066.475-1.066 1.062 0 .586.477 1.062 1.066 1.062h10.51a2.228 2.228 0 0 0 2.213 1.958h12.825v4.08H2.339V18.81h5.972c.59 0 1.067-.475 1.067-1.062 0-.586-.477-1.062-1.067-1.062H1.984c-.98 0-1.777.794-1.777 1.77V69.23c0 .976.797 1.77 1.777 1.77h31.025c.98 0 1.778-.794 1.778-1.77v-4.434h18.547c.818 0 1.977-.294 2.695-.684l5.4-2.932c.62-.337.976-.879.976-1.487 0-.608-.356-1.15-.977-1.487zm-37.082 4.466H19.83c-.05 0-.097-.045-.097-.094v-5.77c0-.048.046-.093.097-.093h4.517v5.957zM6.721 45.934v-14.09h21.552v1.381a17.8 17.8 0 0 0-8.075 7.31 1.808 1.808 0 0 0 0 1.801 17.647 17.647 0 0 0 2.745 3.598H6.721zm15.419-4.498a15.703 15.703 0 0 1 13.48-7.678 15.706 15.706 0 0 1 13.48 7.678 15.708 15.708 0 0 1-13.48 7.678 15.704 15.704 0 0 1-13.48-7.678zM51.799 58.63h-4.386c-.59 0-1.066.475-1.066 1.062 0 .587.477 1.062 1.066 1.062h4.386v1.917h-25.32v-1.917h15.957c.59 0 1.067-.475 1.067-1.062 0-.587-.478-1.062-1.067-1.062H26.48v-1.916H51.8v1.916zm4.423 2.956-1.214.66c-.257.14-.683.274-1.077.353v-5.814c.394.08.82.214 1.077.353l1.214.66v3.788zm2.133-1.158v-1.472l1.356.736-1.356.736z"/>
    </g>
</svg>
