<svg width="69" height="70" viewBox="0 0 69 70" xmlns="http://www.w3.org/2000/svg">
    <g fill="#FFF" fill-rule="nonzero">
        <path d="M39.91 60.9h-2.28V49.752c0-.628-.51-1.137-1.14-1.137-.63 0-1.14.51-1.14 1.137V60.9H5.7V38.15h9.488c.63 0 1.14-.51 1.14-1.137 0-.629-.51-1.138-1.14-1.138H4.56c-.63 0-1.14.51-1.14 1.138V60.9H1.14C.51 60.9 0 61.41 0 62.038v2.275C0 67.453 2.553 70 5.701 70H35.35c3.149 0 5.702-2.546 5.702-5.688v-2.274c0-.629-.51-1.138-1.14-1.138zm-1.14 3.413a3.417 3.417 0 0 1-3.42 3.412h-2.281v-1.137c0-.629-.511-1.138-1.14-1.138-.63 0-1.141.51-1.141 1.138v1.137H10.263v-1.137c0-.629-.51-1.138-1.14-1.138-.63 0-1.14.51-1.14 1.138v1.137H5.7a3.417 3.417 0 0 1-3.42-3.412v-1.138H38.77v1.138zM60.157 7.525h2.402c.663 0 1.2-.51 1.2-1.138 0-.628-.537-1.137-1.2-1.137h-2.402c-1.99 0-3.603 1.528-3.603 3.412V9.8h-1.201c-.663 0-1.201.51-1.201 1.137 0 .629.538 1.138 1.2 1.138h1.202v3.413c0 .628.537 1.137 1.2 1.137.664 0 1.202-.51 1.202-1.137v-3.413h1.2c.664 0 1.202-.51 1.202-1.137 0-.629-.538-1.138-1.201-1.138h-1.201V8.662c0-.628.537-1.137 1.2-1.137z"/>
        <path d="M65.652.875H52.259a3.351 3.351 0 0 0-3.348 3.354v2.236a1.117 1.117 0 1 0 2.232 0V4.23c0-.617.5-1.118 1.116-1.118h13.393c.616 0 1.116.5 1.116 1.118v13.417c0 .617-.5 1.118-1.116 1.118H52.259c-.616 0-1.116-.5-1.116-1.118v-6.709a1.117 1.117 0 1 0-2.232 0v6.709A3.351 3.351 0 0 0 52.26 21h13.393A3.351 3.351 0 0 0 69 17.646V4.229A3.351 3.351 0 0 0 65.652.875zM54.152 46.813a4.808 4.808 0 0 0 4.804 4.812 4.808 4.808 0 0 0 4.803-4.813A4.808 4.808 0 0 0 58.956 42a4.808 4.808 0 0 0-4.804 4.813zm7.206 0a2.404 2.404 0 0 1-2.402 2.406 2.404 2.404 0 0 1-2.402-2.407 2.404 2.404 0 0 1 2.402-2.406 2.404 2.404 0 0 1 2.402 2.407z"/>
        <path d="M65.652 36.75H52.259a3.351 3.351 0 0 0-3.348 3.354v13.417a3.351 3.351 0 0 0 3.348 3.354h13.393A3.351 3.351 0 0 0 69 53.521v-2.236a1.117 1.117 0 1 0-2.232 0v2.236c0 .617-.5 1.118-1.116 1.118H52.259c-.616 0-1.116-.5-1.116-1.118V40.104c0-.617.5-1.118 1.116-1.118h13.393c.616 0 1.116.5 1.116 1.118v6.709a1.117 1.117 0 1 0 2.232 0v-6.709a3.351 3.351 0 0 0-3.348-3.354zM25.894 14.694a1.2 1.2 0 0 0 1.178.049l7.21-3.611a1.204 1.204 0 0 0 0-2.143l-7.21-3.61a1.2 1.2 0 0 0-1.743 1.07v7.222c0 .416.213.803.565 1.023zM27.733 8.4l3.317 1.66-3.317 1.662V8.4z"/>
        <path d="M29.26 20.125c5.547 0 10.044-4.505 10.044-10.063C39.304 4.505 34.807 0 29.259 0c-5.547 0-10.044 4.505-10.044 10.063 0 5.557 4.497 10.062 10.044 10.062zm0-17.889c4.314 0 7.812 3.504 7.812 7.826 0 4.323-3.498 7.827-7.813 7.827-4.314 0-7.812-3.504-7.812-7.826 0-4.323 3.498-7.827 7.812-7.827zM40.352 25.375c.33 0 .64-.173.838-.467l3.145-4.666c.347-.516.253-1.247-.21-1.634-.463-.386-1.12-.282-1.467.234l-3.145 4.666c-.347.516-.253 1.247.21 1.634a.98.98 0 0 0 .629.233zM42.157 29.33c.22.264.565.42.932.42.252 0 .497-.074.698-.21l4.659-3.15c.514-.348.618-1.006.232-1.47-.385-.464-1.115-.558-1.63-.21l-4.658 3.15c-.515.348-.619 1.006-.233 1.47zM54.126 31.577a1.16 1.16 0 0 0-.474-.758 1.061 1.061 0 0 0-.85-.167l-5.513 1.156c-.609.064-1.053.633-.992 1.271.06.638.604 1.104 1.213 1.04h.22l5.514-1.155a1.1 1.1 0 0 0 .723-.497c.166-.262.224-.583.159-.89zM1.123 31.5h13.476c.62 0 1.123-.5 1.123-1.118V12.493a1.12 1.12 0 0 0-1.123-1.118H1.123c-.62 0-1.123.5-1.123 1.118v17.889A1.12 1.12 0 0 0 1.123 31.5zm1.123-17.889h11.23v15.653H2.246V13.61z"/>
        <path d="M10.263 15.75H8.079c-.603 0-1.092.588-1.092 1.313 0 .724.49 1.312 1.092 1.312h2.184c.603 0 1.091-.588 1.091-1.313 0-.724-.488-1.312-1.091-1.312zM10.19 21H5.532c-.644 0-1.165.588-1.165 1.313 0 .724.521 1.312 1.165 1.312h4.658c.643 0 1.164-.588 1.164-1.313 0-.724-.521-1.312-1.164-1.312zM10.19 25.375H5.532c-.644 0-1.165.588-1.165 1.313 0 .724.521 1.312 1.165 1.312h4.658c.643 0 1.164-.588 1.164-1.313 0-.724-.521-1.312-1.164-1.312zM39.596 31.892a1.143 1.143 0 0 0-1.98-.003 1.152 1.152 0 0 0-.002 1.147l5.025 8.729-18.23 6.864h-.172l-2.962 1.716-1.972 1.143a2.27 2.27 0 0 1-3.11-.835l-2.279-3.958a2.293 2.293 0 0 1 .855-3.02l3.942-2.288 2.849 4.954c.204.355.582.573.99.572.409.001.786-.216.991-.57.205-.355.205-.792.001-1.146l-2.94-5.102 14.3-11.84.467.812a1.14 1.14 0 0 0 1.561.423 1.15 1.15 0 0 0 .422-1.567l-1.14-1.98a1.14 1.14 0 0 0-.786-.548 1.136 1.136 0 0 0-.934.24L18.54 38.836l-4.854 2.814a4.584 4.584 0 0 0-2.096 5.183l-1.14.652a3.436 3.436 0 0 0-1.687 3.421 3.427 3.427 0 0 0 2.508 2.87c.29.078.588.116.888.115.6-.003 1.188-.16 1.71-.458l1.139-.652a4.417 4.417 0 0 0 3.19 1.35c.801.002 1.588-.211 2.28-.618l.99-.572 2.28 3.97a3.41 3.41 0 0 0 6.254-.826 3.444 3.444 0 0 0-.341-2.606l-2.074-3.626 17.091-6.44a1.148 1.148 0 0 0 .592-1.636l-5.674-9.885zm-26.912 19.55a1.135 1.135 0 0 1-.866.115 1.14 1.14 0 0 1-.695-.526 1.148 1.148 0 0 1 .421-1.567l.991-.572 1.14 1.979-.991.572zm14.994 3.204c.152.263.193.576.114.87a1.143 1.143 0 0 1-2.085.274l-2.279-3.97 1.892-1.087h.09l2.268 3.913z"/>
    </g>
</svg>
