<svg width="78" height="78" viewBox="0 0 78 78" xmlns="http://www.w3.org/2000/svg">
    <defs>
        <filter color-interpolation-filters="auto" id="a">
            <feColorMatrix in="SourceGraphic" values="0 0 0 0 1.000000 0 0 0 0 1.000000 0 0 0 0 1.000000 0 0 0 1.000000 0"/>
        </filter>
    </defs>
    <g transform="translate(-70 -28)" filter="url(#a)" fill="none" fill-rule="evenodd">
        <g fill="#000" fill-rule="nonzero">
            <path d="M130 51.251c2.975-1.094 5-3.895 5-7.106 0-3.212-2.025-6.012-5-7.106v-6.555A2.494 2.494 0 0 0 127.5 28h-2.978c-.955 0-1.811.527-2.236 1.372l-.295.588c-1.705 3.388-5.132 5.492-8.944 5.492H91.25c-3.446 0-6.25 2.785-6.25 6.21v4.967c0 2.016.988 3.793 2.49 4.928a6.218 6.218 0 0 0-3.591 2.547l-2.522 3.756A8.097 8.097 0 0 0 80 62.384c0 .979.187 1.956.532 2.874H73.75c-2.068 0-3.75 1.672-3.75 3.726v27.322c0 2.055 1.682 3.726 3.75 3.726h11.983l4.115 4.089c.56.559 1.339.879 2.135.879 1.663 0 3.017-1.345 3.017-2.998v-1.97h11.25c2.068 0 3.75-1.671 3.75-3.726V68.984c0-2.054-1.682-3.726-3.75-3.726h-1.48c.14-.39.23-.805.23-1.242v-7.451c0-1.67-1.117-3.068-2.642-3.541-.017-.063-.041-.123-.063-.185h10.752c3.812 0 7.24 2.104 8.943 5.493l.295.586a2.49 2.49 0 0 0 2.238 1.372h2.977c1.38 0 2.5-1.114 2.5-2.484v-6.555zm-42.5-9.59c0-2.054 1.682-3.726 3.75-3.726h6.25v12.42h-6.25c-2.068 0-3.75-1.672-3.75-3.726v-4.968zm-4.042 17.576 2.522-3.756a3.743 3.743 0 0 1 2.747-1.64l10.142-1.002c.623 0 1.13.504 1.13 1.124 0 .898-.647 1.656-1.537 1.804l-5.962.988v1.052a5.118 5.118 0 0 1-3.904 4.967l-.15.038.606 2.41.149-.038a7.636 7.636 0 0 0 3.298-1.776v4.334h-7.977l-1.42-2.82a5.64 5.64 0 0 1 .357-5.685zm12.792 10.99c-.69 0-1.25-.559-1.25-1.243V58.858l2.5-.413v5.571c0 1.617 1.048 2.983 2.5 3.498v1.47c0 .684-.56 1.242-1.25 1.242h-2.5zM72.5 96.306V68.984c0-.684.56-1.242 1.25-1.242h7.977l.7 1.387-7.152 28.42H73.75c-.69 0-1.25-.558-1.25-1.242zm20 1.242v4.453c0 .42-.587.66-.884.364l-4.849-4.817H77.85l6.875-27.323h8.005A3.736 3.736 0 0 0 95 72.482v25.067h-2.5zm15-28.565v27.323c0 .684-.56 1.242-1.25 1.242H97.5V72.71h1.25c2.067 0 3.75-1.672 3.75-3.726v-1.242h3.75c.69 0 1.25.558 1.25 1.242zm-7.5-4.968v-6.163a4.276 4.276 0 0 0 2.127-2.17c.23.226.373.536.373.882v7.451c0 .685-.56 1.242-1.25 1.242s-1.25-.557-1.25-1.242zm13.047-13.66H100v-12.42h13.047c3.712 0 7.115-1.61 9.453-4.317V54.67a12.44 12.44 0 0 0-9.453-4.316zm14.453 7.45H125V30.485h2.5v27.323zm5-13.66c0 1.834-.982 3.47-2.5 4.376V39.77a5.097 5.097 0 0 1 2.5 4.376zM138 43h6v3h-6zM137 39.266 141.97 37l1.03 2.734L138.03 42zM137 49.734 138.029 47 143 49.266 141.971 52z"/>
            <path d="M115 41h3v7h-3zM127.15 92l-3.538 3.54H115V106h10.46v-8.612l3.54-3.54L127.15 92zm-4.305 11.385h-5.23v-5.23h3.382l-1.69 1.69 1.848 1.849 1.69-1.69v3.38zM131 100h17v3h-17zM123.612 80.54H115V91h10.46v-8.612l3.54-3.54L127.151 77l-3.54 3.54zm-.767 7.845h-5.23v-5.23h3.382l-1.69 1.69 1.848 1.849 1.69-1.69v3.38zM131 85h17v3h-17zM123.612 65.54H115V76h10.46v-8.612l3.54-3.54L127.151 62l-3.54 3.54zm-.767 7.845h-5.23v-5.23h3.382l-1.69 1.69 1.848 1.849 1.69-1.69v3.38zM131 70h17v3h-17z"/>
        </g>
    </g>
</svg>
