<?xml version="1.0" encoding="UTF-8"?>
<svg width="76px" height="51px" viewBox="0 0 76 51" version="1.1" xmlns="http://www.w3.org/2000/svg" xmlns:xlink="http://www.w3.org/1999/xlink">
    <title>noun-ad-campaign-4037326</title>
    <defs>
        <filter color-interpolation-filters="auto" id="filter-1">
            <feColorMatrix in="SourceGraphic" type="matrix" values="0 0 0 0 1.000000 0 0 0 0 1.000000 0 0 0 0 1.000000 0 0 0 1.000000 0"></feColorMatrix>
        </filter>
    </defs>
    <g id="Home" stroke="none" stroke-width="1" fill="none" fill-rule="evenodd">
        <g id="1-Home-new" transform="translate(-1051.000000, -1897.000000)">
            <g id="Group-3" transform="translate(137.000000, 1589.000000)">
                <g id="noun-ad-campaign-4037326" transform="translate(846.000000, 253.000000)" filter="url(#filter-1)">
                    <g transform="translate(68.000000, 55.000000)">
                        <path d="M14.9831384,34.5075659 L17.6477275,26.5279505 C17.7014493,26.3681623 17.928779,26.3681623 17.9819376,26.5279505 L22.8604549,41.1312717 C22.9611131,41.4334059 22.7354801,41.7450894 22.4154109,41.7450894 L19.0647689,41.7450894 C17.9637403,41.7450894 16.9911204,41.0468694 16.6438234,40.0072092 L14.9829068,35.0325163 C14.9263577,34.862041 14.9263577,34.67807 14.9829068,34.5075947 L14.9831384,34.5075659 Z M6.29998857,41.7451326 L9.6506305,41.7451326 C10.7516591,41.7451326 11.724279,41.0469126 12.0715761,40.0072524 L17.1259858,24.8710158 C17.2006307,24.6476523 17.0332434,24.4175481 16.7968715,24.4175481 L11.8685542,24.4175481 C11.6118237,24.4175481 11.3839163,24.5812683 11.3030637,24.8237592 L5.85503143,41.1324096 C5.7543732,41.4345438 5.98000625,41.7462272 6.30007543,41.7462272 L6.29998857,41.7451326 Z M37.2382338,26.85807 L46.1040802,26.85807 C46.8041609,26.85807 47.3713597,26.2943175 47.3713597,25.5983589 C47.3713597,24.9024002 46.8041609,24.3386478 46.1040802,24.3386478 L37.2382338,24.3386478 C36.5387177,24.3386478 35.9709543,24.9024002 35.9709543,25.5983589 C35.9709543,26.2943175 36.5381531,26.85807 37.2382338,26.85807 Z M51.1709398,26.85807 L68.9049488,26.85807 C69.6039003,26.85807 70.1710991,26.2943175 70.1710991,25.5983589 C70.1710991,24.9024002 69.6039003,24.3386478 68.9049488,24.3386478 L51.1709398,24.3386478 C50.4714237,24.3386478 49.9047891,24.9024002 49.9047891,25.5983589 C49.9042239,26.2943175 50.4708591,26.85807 51.1709398,26.85807 L51.1709398,26.85807 Z M68.9049488,29.3786156 L61.3046592,29.3786156 C60.6051431,29.3786156 60.0385089,29.9429298 60.0385089,30.6394501 C60.0385089,31.3348471 60.6051431,31.8991612 61.3046592,31.8991612 L68.9049488,31.8991612 C69.6039003,31.8991612 70.1710991,31.3348471 70.1710991,30.6394501 C70.1710991,29.9434915 69.6039003,29.3786156 68.9049488,29.3786156 Z M37.2385234,31.8991612 L56.2377995,31.8991612 C56.9367511,31.8991612 57.5039499,31.3348471 57.5039499,30.6394501 C57.5039499,29.9429298 56.9367511,29.3786156 56.2377995,29.3786156 L37.2385234,29.3786156 C36.5390072,29.3786156 35.9712439,29.9429298 35.9712439,30.6394501 C35.9712439,31.3348471 36.5384426,31.8991612 37.2385234,31.8991612 Z M68.9049488,34.420283 L51.1709398,34.420283 C50.4714237,34.420283 49.9047895,34.9840354 49.9047895,35.6799941 C49.9047895,36.3759527 50.4714237,36.9408286 51.1709398,36.9408286 L68.9049488,36.9408286 C69.6039003,36.9408286 70.1710991,36.3759527 70.1710991,35.6799941 C70.1710991,34.9840354 69.6039003,34.420283 68.9049488,34.420283 Z M37.2385234,36.9408286 L46.1043697,36.9408286 C46.8044505,36.9408286 47.3716492,36.3759527 47.3716492,35.6799941 C47.3716492,34.9840354 46.8044505,34.420283 46.1043697,34.420283 L37.2385234,34.420283 C36.5390072,34.420283 35.9712439,34.9840354 35.9712439,35.6799941 C35.9712439,36.3759527 36.5384426,36.9408286 37.2385234,36.9408286 Z M37.2385234,41.9807676 L51.1712294,41.9807676 C51.8707456,41.9807676 52.4373797,41.4170152 52.4373797,40.7210565 C52.4373797,40.0250979 51.8707456,39.460222 51.1712294,39.460222 L37.2385234,39.460222 C36.5390072,39.460222 35.9712439,40.0250979 35.9712439,40.7210565 C35.9712439,41.4170152 36.5384426,41.9807676 37.2385234,41.9807676 Z M76,5.04109125 L76,45.9589088 C76,48.7433195 73.7317841,51 70.9331403,51 L5.06685969,51 C2.26821593,51 0,48.7433195 0,45.9589088 L0,5.04109125 C0,2.2566805 2.26821593,0 5.06685969,0 L70.9331403,0 C73.7317841,0 76,2.2566805 76,5.04109125 Z M50.6671492,9.01822418 C50.6671492,11.105524 52.3693245,12.7990426 54.467294,12.7990426 L67.1338641,12.7990426 C69.2318336,12.7990426 70.9340089,11.105524 70.9340089,9.01822418 C70.9340089,6.93092434 69.2318336,5.23740574 67.1338641,5.23740574 L54.467294,5.23796847 C52.3693245,5.23796847 50.6671492,6.93148707 50.6671492,9.01821079 L50.6671492,9.01822418 Z M25.3342984,9.01822418 C25.3342984,11.105524 27.0364738,12.7990426 29.1344432,12.7990426 C31.2324127,12.7990426 32.934588,11.105524 32.934588,9.01822418 C32.934588,6.93092434 31.2324127,5.23740574 29.1344432,5.23740574 C27.0364738,5.23796847 25.3342984,6.93150047 25.3342984,9.01822418 Z M15.2011581,9.01822418 C15.2011581,11.105524 16.9010172,12.7990426 19.0013029,12.7990426 C21.0992724,12.7990426 22.8014477,11.105524 22.8014477,9.01822418 C22.8014477,6.93092434 21.0992724,5.23740574 19.0013029,5.23740574 C16.9010172,5.23796847 15.2011581,6.93150047 15.2011581,9.01822418 Z M5.06801783,9.01822418 C5.06801783,11.105524 6.76787687,12.7990426 8.8681626,12.7990426 C10.966132,12.7990426 12.6683074,11.105524 12.6683074,9.01822418 C12.6683074,6.93092434 10.966132,5.23740574 8.8681626,5.23740574 C6.76787687,5.23796847 5.06801783,6.93150047 5.06801783,9.01822418 L5.06801783,9.01822418 Z M73.4677283,17.8401339 L2.53458798,17.8401339 L2.53458798,45.9579005 C2.53458798,47.3498322 3.66840642,48.4784462 5.06801783,48.4784462 L70.9342984,48.4784462 C72.3333453,48.4784462 73.4677283,47.350394 73.4677283,45.9579005 L73.4677283,17.8401339 Z" id="Shape" fill="#000000" fill-rule="nonzero"></path>
                    </g>
                </g>
            </g>
        </g>
    </g>
</svg>