<?xml version="1.0" encoding="UTF-8"?>
<svg width="72px" height="64px" viewBox="0 0 72 64" version="1.1" xmlns="http://www.w3.org/2000/svg" xmlns:xlink="http://www.w3.org/1999/xlink">
    <title>noun-seo-2499439</title>
    <defs>
        <filter color-interpolation-filters="auto" id="filter-1">
            <feColorMatrix in="SourceGraphic" type="matrix" values="0 0 0 0 1.000000 0 0 0 0 1.000000 0 0 0 0 1.000000 0 0 0 1.000000 0"></feColorMatrix>
        </filter>
    </defs>
    <g id="Home" stroke="none" stroke-width="1" fill="none" fill-rule="evenodd">
        <g id="1-Home-new" transform="translate(-1053.000000, -2131.000000)">
            <g id="Group-3" transform="translate(137.000000, 1589.000000)">
                <g id="noun-seo-2499439" transform="translate(846.000000, 500.000000)" filter="url(#filter-1)">
                    <g transform="translate(70.000000, 42.000000)">
                        <path d="M62.8870948,46 L9.11290523,46 C8.49776078,46 8,45.4997913 8,44.8816216 L8,19.1183784 C8,18.5002087 8.49776078,18 9.11290523,18 L62.8870948,18 C63.5022392,18 64,18.5002087 64,19.1183784 L64,44.8816216 C64,45.4997913 63.5022392,46 62.8870948,46 Z M10.2258105,43.7632433 L61.7741895,43.7632433 L61.7741895,20.2367567 L10.2258105,20.2367567 L10.2258105,43.7632433 Z" id="Shape" fill="#000000" fill-rule="nonzero"></path>
                        <path d="M9.81696806,24 L5.18303194,24 C4.52912582,24 4,23.5150049 4,22.9156365 L4,10.0843635 C4,9.48499512 4.52912582,9 5.18303194,9 C5.83693806,9 6.36606388,9.48499512 6.36606388,10.0843635 L6.36606388,21.831273 L9.81696806,21.831273 C10.4708742,21.831273 11,22.3162682 11,22.9156365 C11,23.5150049 10.4708742,24 9.81696806,24 L9.81696806,24 Z" id="Path" fill="#000000" fill-rule="nonzero"></path>
                        <path d="M5.5,11 C2.4674375,11 0,8.5325625 0,5.5 C0,2.4674375 2.4674375,0 5.5,0 C8.5325625,0 11,2.4674375 11,5.5 C11,8.5325625 8.5325625,11 5.5,11 L5.5,11 Z M5.5,2.2 C3.680325,2.2 2.2,3.680325 2.2,5.5 C2.2,7.319675 3.680325,8.8 5.5,8.8 C7.319675,8.8 8.8,7.319675 8.8,5.5 C8.8,3.680325 7.319675,2.2 5.5,2.2 L5.5,2.2 Z" id="Shape" fill="#000000" fill-rule="nonzero"></path>
                        <path d="M5.18303194,55 C4.52912582,55 4,54.5150399 4,53.9157149 L4,41.0842851 C4,40.4849601 4.52912582,40 5.18303194,40 L9.81696806,40 C10.4708742,40 11,40.4849601 11,41.0842851 C11,41.6836101 10.4708742,42.1685702 9.81696806,42.1685702 L6.36606388,42.1685702 L6.36606388,53.9157149 C6.36606388,54.5150399 5.83693806,55 5.18303194,55 L5.18303194,55 Z" id="Path" fill="#000000" fill-rule="nonzero"></path>
                        <path d="M5.5,64 C2.4674375,64 0,61.5325625 0,58.5 C0,55.4674375 2.4674375,53 5.5,53 C8.5325625,53 11,55.4674375 11,58.5 C11,61.5325625 8.5325625,64 5.5,64 L5.5,64 Z M5.5,55.2 C3.680325,55.2 2.2,56.680325 2.2,58.5 C2.2,60.319675 3.680325,61.8 5.5,61.8 C7.319675,61.8 8.8,60.319675 8.8,58.5 C8.8,56.680325 7.319675,55.2 5.5,55.2 L5.5,55.2 Z" id="Shape" fill="#000000" fill-rule="nonzero"></path>
                        <path d="M66.8167681,24 L62.1832319,24 C61.5292153,24 61,23.5150049 61,22.9156365 C61,22.3162682 61.5292153,21.831273 62.1832319,21.831273 L65.6335362,21.831273 L65.6335362,10.0843635 C65.6335362,9.48499512 66.1627514,9 66.8167681,9 C67.4707847,9 68,9.48499512 68,10.0843635 L68,22.9156365 C68,23.5150049 67.4707847,24 66.8167681,24 Z" id="Path" fill="#000000" fill-rule="nonzero"></path>
                        <path d="M66.5,11 C63.4674375,11 61,8.5325625 61,5.5 C61,2.4674375 63.4674375,0 66.5,0 C69.5325625,0 72,2.4674375 72,5.5 C72,8.5325625 69.5325625,11 66.5,11 Z M66.5,2.2 C64.680325,2.2 63.2,3.680325 63.2,5.5 C63.2,7.319675 64.680325,8.8 66.5,8.8 C68.319675,8.8 69.8,7.319675 69.8,5.5 C69.8,3.680325 68.319675,2.2 66.5,2.2 Z" id="Shape" fill="#000000" fill-rule="nonzero"></path>
                        <path d="M47.5,11 C44.4674375,11 42,8.5325625 42,5.5 C42,2.4674375 44.4674375,0 47.5,0 C50.5325625,0 53,2.4674375 53,5.5 C53,8.5325625 50.5325625,11 47.5,11 Z M47.5,2.2 C45.680325,2.2 44.2,3.680325 44.2,5.5 C44.2,7.319675 45.680325,8.8 47.5,8.8 C49.319675,8.8 50.8,7.319675 50.8,5.5 C50.8,3.680325 49.319675,2.2 47.5,2.2 Z" id="Shape" fill="#000000" fill-rule="nonzero"></path>
                        <path d="M24.5,11 C21.4674375,11 19,8.5325625 19,5.5 C19,2.4674375 21.4674375,0 24.5,0 C27.5325625,0 30,2.4674375 30,5.5 C30,8.5325625 27.5325625,11 24.5,11 Z M24.5,2.2 C22.680325,2.2 21.2,3.680325 21.2,5.5 C21.2,7.319675 22.680325,8.8 24.5,8.8 C26.319675,8.8 27.8,7.319675 27.8,5.5 C27.8,3.680325 26.319675,2.2 24.5,2.2 Z" id="Shape" fill="#000000" fill-rule="nonzero"></path>
                        <path d="M66.8167681,55 C66.1627514,55 65.6335362,54.5150399 65.6335362,53.9157149 L65.6335362,42.1685702 L62.1832319,42.1685702 C61.5292153,42.1685702 61,41.6836101 61,41.0842851 C61,40.4849601 61.5292153,40 62.1832319,40 L66.8167681,40 C67.4707847,40 68,40.4849601 68,41.0842851 L68,53.9157149 C68,54.5150399 67.4707847,55 66.8167681,55 L66.8167681,55 Z" id="Path" fill="#000000" fill-rule="nonzero"></path>
                        <path d="M66.5,64 C63.4674375,64 61,61.5325625 61,58.5 C61,55.4674375 63.4674375,53 66.5,53 C69.5325625,53 72,55.4674375 72,58.5 C72,61.5325625 69.5325625,64 66.5,64 Z M66.5,55.2 C64.680325,55.2 63.2,56.680325 63.2,58.5 C63.2,60.319675 64.680325,61.8 66.5,61.8 C68.319675,61.8 69.8,60.319675 69.8,58.5 C69.8,56.680325 68.319675,55.2 66.5,55.2 Z" id="Shape" fill="#000000" fill-rule="nonzero"></path>
                        <path d="M25,20 C24.4472625,20 24,19.523053 24,18.9336306 L24,10.0663694 C24,9.47694703 24.4472625,9 25,9 C25.5527375,9 26,9.47694703 26,10.0663694 L26,18.9336306 C26,19.523053 25.5527375,20 25,20 Z" id="Path" fill="#000000" fill-rule="nonzero"></path>
                        <path d="M47,20 C46.4472625,20 46,19.523053 46,18.9336306 L46,10.0663694 C46,9.47694703 46.4472625,9 47,9 C47.5527375,9 48,9.47694703 48,10.0663694 L48,18.9336306 C48,19.523053 47.5527375,20 47,20 Z" id="Path" fill="#000000" fill-rule="nonzero"></path>
                        <path d="M47.5,64 C44.4674375,64 42,61.5325625 42,58.5 C42,55.4674375 44.4674375,53 47.5,53 C50.5325625,53 53,55.4674375 53,58.5 C53,61.5325625 50.5325625,64 47.5,64 Z M47.5,55.2 C45.680325,55.2 44.2,56.680325 44.2,58.5 C44.2,60.319675 45.680325,61.8 47.5,61.8 C49.319675,61.8 50.8,60.319675 50.8,58.5 C50.8,56.680325 49.319675,55.2 47.5,55.2 Z" id="Shape" fill="#000000" fill-rule="nonzero"></path>
                        <path d="M24.5,64 C21.4674375,64 19,61.5325625 19,58.5 C19,55.4674375 21.4674375,53 24.5,53 C27.5325625,53 30,55.4674375 30,58.5 C30,61.5325625 27.5325625,64 24.5,64 Z M24.5,55.2 C22.680325,55.2 21.2,56.680325 21.2,58.5 C21.2,60.319675 22.680325,61.8 24.5,61.8 C26.319675,61.8 27.8,60.319675 27.8,58.5 C27.8,56.680325 26.319675,55.2 24.5,55.2 Z" id="Shape" fill="#000000" fill-rule="nonzero"></path>
                        <path d="M25,55 C24.4472625,55 24,54.523053 24,53.9336306 L24,45.0663694 C24,44.476947 24.4472625,44 25,44 C25.5527375,44 26,44.476947 26,45.0663694 L26,53.9336306 C26,54.523053 25.5527375,55 25,55 L25,55 Z" id="Path" fill="#000000" fill-rule="nonzero"></path>
                        <path d="M47,55 C46.4472625,55 46,54.523053 46,53.9336306 L46,45.0663694 C46,44.476947 46.4472625,44 47,44 C47.5527375,44 48,44.476947 48,45.0663694 L48,53.9336306 C48,54.523053 47.5527375,55 47,55 L47,55 Z" id="Path" fill="#000000" fill-rule="nonzero"></path>
                        <path d="M18.377597,35.163488 C19.0468307,35.5437946 20.0250427,35.8600042 21.0544721,35.8600042 C22.5815736,35.8600042 23.4733171,35.1166289 23.4733171,34.0398337 C23.4733171,33.0432699 22.8560631,32.4734031 21.2945626,31.9190364 C19.4071758,31.3017036 18.2403596,30.3993546 18.2403596,28.8964969 C18.2403596,27.234638 19.7324043,26 21.9801512,26 C23.1644434,26 24.0216684,26.2531746 24.5368315,26.5219872 L24.1245515,27.6456692 C23.7473133,27.4555159 22.9753011,27.1393063 21.928306,27.1393063 C20.3503759,27.1393063 19.7495515,28.0098136 19.7495515,28.7381439 C19.7495515,29.7347076 20.4532291,30.2259702 22.0486503,30.7953682 C24.0043567,31.4918845 25,32.3623505 25,33.928919 C25,35.5751949 23.6790684,37 20.9507518,37 C19.8359602,37 18.6178669,36.6988768 18,36.3191081 L18.377597,35.163488 Z" id="Path" fill="#000000" fill-rule="nonzero"></path>
                        <polygon id="Path" fill="#000000" fill-rule="nonzero" points="36.5251977 31.8423644 32.3772301 31.8423644 32.3772301 35.8085075 37 35.8085075 37 37 31 37 31 26 36.7628747 26 36.7628747 27.1914925 32.3772301 27.1914925 32.3772301 30.6676091 36.5246459 30.6676091"></polygon>
                        <path d="M53,31.3889383 C53,35.0559722 50.9392636,37 48.4271206,37 C45.8263766,37 44,34.8192516 44,31.5949499 C44,28.212559 45.9433655,26 48.5728794,26 C51.2615879,26 53,28.2286709 53,31.3889383 Z M45.3590574,31.5637589 C45.3590574,33.8396637 46.4982928,35.877884 48.499809,35.877884 C50.5162449,35.877884 51.655964,33.8709235 51.655964,31.4529038 C51.655964,29.3345372 50.6335903,27.1226668 48.5147032,27.1226668 C46.410812,27.1226668 45.3590574,29.2238198 45.3590574,31.5637589 L45.3590574,31.5637589 Z" id="Shape" fill="#000000" fill-rule="nonzero"></path>
                    </g>
                </g>
            </g>
        </g>
    </g>
</svg>