<?xml version="1.0" encoding="UTF-8"?>
<svg width="60px" height="61px" viewBox="0 0 60 61" version="1.1" xmlns="http://www.w3.org/2000/svg" xmlns:xlink="http://www.w3.org/1999/xlink">
    <title>noun-responsive-3344999</title>
    <defs>
        <filter color-interpolation-filters="auto" id="filter-1">
            <feColorMatrix in="SourceGraphic" type="matrix" values="0 0 0 0 1.000000 0 0 0 0 1.000000 0 0 0 0 1.000000 0 0 0 1.000000 0"></feColorMatrix>
        </filter>
    </defs>
    <g id="Home" stroke="none" stroke-width="1" fill="none" fill-rule="evenodd">
        <g id="1-Home-new" transform="translate(-213.000000, -1887.000000)">
            <g id="Group-3" transform="translate(137.000000, 1589.000000)">
                <g id="noun-responsive-3344999" transform="translate(0.000000, 253.000000)" filter="url(#filter-1)">
                    <g transform="translate(76.000000, 45.000000)">
                        <path d="M26,50 L4.64285714,50 C3.41204898,49.998283 2.23186122,49.4913297 1.36133878,48.5903297 C0.491219592,47.6888901 0.00169795918,46.4668132 0,45.1923077 L0,4.80769231 C0.00165816327,3.53318681 0.491230204,2.3110989 1.36133878,1.40967033 C2.23187184,0.508659341 3.41204898,0.00175824176 4.64285714,0 L6.5,0 L6.5,1.92307692 L4.64285714,1.92307692 C3.90414939,1.92307692 3.19524082,2.22698901 2.67301224,2.76785714 C2.15078367,3.30872527 1.85719592,4.0428022 1.85719592,4.80763736 L1.85719592,45.1922527 C1.85719592,45.9571868 2.15068816,46.6912637 2.67301224,47.232033 C3.19533633,47.7728022 3.9042449,48.0768132 4.64285714,48.0768132 L26,48.0768132 L26,50 Z" id="Path" fill="#000000" fill-rule="nonzero"></path>
                        <polygon id="Path" fill="#000000" fill-rule="nonzero" points="8 0 10 0 10 2 8 2"></polygon>
                        <path d="M55.1960784,50 L55.1960784,48.0768132 C55.9604125,48.0768132 56.6939137,47.7729011 57.2342588,47.232033 C57.7746039,46.6911648 58.0783765,45.9570879 58.0783765,45.1922527 L58.0783765,4.80763736 C58.0783765,4.0427033 57.7747027,3.30862637 57.2342588,2.76785714 C56.6938149,2.22708791 55.9603137,1.92307692 55.1960784,1.92307692 L11,1.92307692 L11,0 L55.1960784,0 C56.4695843,0.00171703297 57.6907137,0.50867033 58.5914353,1.40967033 C59.4917396,2.31110989 59.9982431,3.53318681 60,4.80769231 L60,45.1923077 C59.9982843,46.4668132 59.4917286,47.6889011 58.5914353,48.5903297 C57.6907027,49.4913407 56.4695843,49.9982418 55.1960784,50 L55.1960784,50 Z" id="Path" fill="#000000" fill-rule="nonzero"></path>
                        <polygon id="Path" fill="#000000" fill-rule="nonzero" points="17 52.4590418 18.0206289 48 20 48.5409582 18.9793711 53"></polygon>
                        <path d="M26,57 L16.9090909,57 C16.4070649,57 16,56.6268536 16,56.1666587 L16,54.4999762 C16,53.837027 16.2873351,53.200821 16.7987013,52.7321498 C17.3100675,52.2634787 18.0041039,52 18.7272208,52 L26,52 L26,53.6666825 L18.7272208,53.6666825 C18.2251948,53.6666825 17.8181299,54.039829 17.8181299,54.5000238 L17.8181299,55.3333651 L26,55.3333651 L26,57 Z" id="Path" fill="#000000" fill-rule="nonzero"></path>
                        <polygon id="Path" fill="#000000" fill-rule="nonzero" points="0 40 25 40 25 42 0 42"></polygon>
                        <polygon id="Path" fill="#000000" fill-rule="nonzero" points="3 44 5 44 5 46 3 46"></polygon>
                        <polygon id="Path" fill="#000000" fill-rule="nonzero" points="7 44 12 44 12 46 7 46"></polygon>
                        <path d="M51.1666667,61 L31.8333333,61 C30.5520305,60.9983214 29.3234248,60.5027239 28.4171886,59.6219063 C27.5113722,58.740659 27.0017676,57.5459566 27,56.3 L27,18.7 C27.0017262,17.4540434 27.5113832,16.2593303 28.4171886,15.3780937 C29.3234358,14.4972654 30.5520305,14.0017189 31.8333333,14 L51.1666667,14 C52.4479695,14.0016786 53.6765752,14.4972761 54.5828114,15.3780937 C55.4886278,16.259341 55.9982324,17.4540434 56,18.7 L56,56.3 C55.9982738,57.5459566 55.4886168,58.7406697 54.5828114,59.6219063 C53.6765642,60.5027346 52.4479695,60.9982811 51.1666667,61 Z M31.8333333,15.88 C31.0643196,15.88 30.3263276,16.1771045 29.7826743,16.7058571 C29.239021,17.2346098 28.9333886,17.9522434 28.9333886,18.6999463 L28.9333886,56.2999463 C28.9333886,57.0477458 29.2389215,57.7653794 29.7826743,58.2940354 C30.326427,58.8226914 31.064419,59.1198926 31.8333333,59.1198926 L51.1666667,59.1198926 C51.9356804,59.1198926 52.6736724,58.8227881 53.2173257,58.2940354 C53.760979,57.7652827 54.0666114,57.0476491 54.0666114,56.2999463 L54.0666114,18.6999463 C54.0666114,17.9521467 53.7610785,17.2345131 53.2173257,16.7058571 C52.673573,16.1772011 51.935581,15.88 51.1666667,15.88 L31.8333333,15.88 Z" id="Shape" fill="#000000" fill-rule="nonzero"></path>
                        <path d="M46.6428571,23 L37.3571429,23 C35.6169469,23 34.888098,21.3678857 34.6576,20 L29,20 L29,18 L35.5,18 C35.7462359,18 35.9825282,18.1053577 36.1566327,18.2928571 C36.3307371,18.4803566 36.4285714,18.7348229 36.4285714,19 C36.4285714,19.0169646 36.4803889,21 37.3571429,21 L46.6428571,21 C47.519609,21 47.5714286,19.0169143 47.5714286,19 C47.5714286,18.4477714 47.9872163,18 48.5,18 L55,18 L55,20 L49.3424,20 C49.1119127,21.3678857 48.3831486,23 46.6428571,23 Z" id="Path" fill="#000000" fill-rule="nonzero"></path>
                        <polygon id="Path" fill="#000000" fill-rule="nonzero" points="38 16 45 16 45 18 38 18"></polygon>
                        <polygon id="Path" fill="#000000" fill-rule="nonzero" points="38 56 45 56 45 58 38 58"></polygon>
                        <polygon id="Path" fill="#000000" fill-rule="nonzero" points="29 53 55 53 55 55 29 55"></polygon>
                        <path d="M16,26 L12,26 C11.447769,26 11,25.5522281 11,25 L11,23.5339405 C10.4415166,23.3580432 9.8999961,23.1330487 9.3807956,22.8620656 L8.34285176,23.9000094 C7.95266853,24.2901927 7.31963935,24.2901927 6.92902184,23.9000094 L4.09999057,21.0709782 C3.70980734,20.6803492 3.70980734,20.04732 4.09999057,19.6571482 L5.13704299,18.6192044 C4.86605987,18.1000039 4.64151109,17.5584948 4.46605949,17 L3,17 C2.44777186,17 2,16.552231 2,16 L2,12 C2,11.447769 2.44777186,11 3,11 L4.46605949,11 C4.6419568,10.4415166 4.8669513,9.8999961 5.13793442,9.3807956 L4.09999057,8.34285176 C3.70980734,7.95266853 3.70980734,7.31963935 4.09999057,6.92902184 L6.92902184,4.09999057 C7.31965078,3.70980734 7.95267995,3.70980734 8.34285176,4.09999057 L9.3807956,5.13704299 C9.8999961,4.86605987 10.4415052,4.64151109 11,4.46605949 L11,3 C11,2.44777186 11.447769,2 12,2 L16,2 C16.2651793,2 16.5196481,2.10535781 16.7071454,2.29285742 C16.8946428,2.48035703 17,2.73482356 17,3 L17,4.46605949 C17.5584834,4.6419568 18.1000039,4.8669513 18.6192044,5.13793442 L19.6571482,4.09999057 C20.0473315,3.70980734 20.6803606,3.70980734 21.0709782,4.09999057 L23.9000094,6.92902184 C24.2901927,7.31965078 24.2901927,7.95267995 23.9000094,8.34285176 L22.862957,9.3807956 C23.1339401,9.8999961 23.3584889,10.4415052 23.5339405,11 L25,11 C25.2651764,11 25.5196453,11.105355 25.7071426,11.2928546 C25.8946399,11.4803542 26,11.7348207 26,12 L26,16 C26,16.2651793 25.8946422,16.5196481 25.7071426,16.7071454 C25.519643,16.8946428 25.2651764,17 25,17 L23.5339405,17 C23.3580432,17.5584834 23.1330487,18.1000039 22.8620656,18.6192044 L23.9000094,19.6571482 C24.2901927,20.0473315 24.2901927,20.6803606 23.9000094,21.0709782 L21.0709782,23.9000094 C20.6803492,24.2901927 20.04732,24.2901927 19.6571482,23.9000094 L18.6192044,22.862957 C18.1000039,23.1339401 17.5584948,23.3584889 17,23.5339405 L17,25 C17,25.2651764 16.894645,25.5196453 16.7071454,25.7071426 C16.5196458,25.8946399 16.2651793,26 16,26 Z M12.999999,23.9999981 L15.000001,23.9999981 L15.000001,22.7700541 C14.9995546,22.3026479 15.322767,21.8977332 15.7781274,21.794156 C16.6544711,21.5946015 17.4910433,21.2472755 18.2509298,20.7669207 C18.6464616,20.5173662 19.1616506,20.5754005 19.4919595,20.9057551 L20.3638346,21.7776303 L21.7776646,20.3638003 L20.9057894,19.4919252 C20.5754348,19.1615706 20.5174005,18.646393 20.766955,18.2508955 C21.2473098,17.4910776 21.5946358,16.6544368 21.7941903,15.7780931 C21.8977618,15.3227327 22.3026708,14.999521 22.7700884,14.9999667 L24.0000324,14.9999667 L24.0000324,12.9999648 L22.7700884,12.9999648 C22.3026822,13.0004112 21.8977675,12.6771987 21.7941903,12.2218383 C21.5946358,11.3454946 21.2473098,10.5089224 20.766955,9.74903595 C20.5174005,9.35350415 20.5754348,8.83831508 20.9057894,8.5080062 L21.7776646,7.63613108 L20.3638346,6.22184402 L19.4919595,7.09371914 L19.4919595,7.09416565 C19.1616049,7.42452025 18.6464273,7.48255459 18.2509298,7.23300007 C17.4911119,6.75264533 16.6544711,6.40531928 15.7781274,6.20576481 C15.322767,6.10219328 14.9995552,5.69728432 15.000001,5.22986673 L15.000001,3.9999227 L12.999999,3.9999227 L12.999999,5.22986673 C13.0004454,5.69727289 12.677233,6.10218756 12.2218726,6.20576481 C11.3455289,6.40531928 10.5089567,6.75264533 9.74907024,7.23300007 C9.35353843,7.48255459 8.83834937,7.42452025 8.50804048,7.09416565 L7.63616537,6.22229054 L6.22187831,7.63612045 L7.09375342,8.50799557 L7.09419994,8.50799557 C7.42455454,8.83835017 7.48258888,9.3535278 7.23303436,9.74902532 C6.75267961,10.5088432 6.40535357,11.345484 6.20579909,12.2218277 C6.10222756,12.6771881 5.69731861,13.0003998 5.22990102,12.9999541 L3.99995699,12.9999541 L3.99995699,14.999956 L5.22990102,14.999956 C5.69730718,14.9995096 6.10222185,15.3227221 6.20579909,15.7780825 C6.40535357,16.6544262 6.75267961,17.4909984 7.23303436,18.2508848 C7.48258888,18.6464167 7.42455454,19.1616057 7.09419994,19.4919146 L6.22232482,20.3637897 L7.63615474,21.7776196 L8.50802986,20.9057445 C8.83838446,20.5753899 9.35356209,20.5173556 9.74905961,20.7669101 C10.5088775,21.2472648 11.3455183,21.5945909 12.221862,21.7941454 C12.6772224,21.8977169 13.0004341,22.3026259 12.9999884,22.7700434 L12.999999,23.9999981 Z" id="Shape" fill="#000000" fill-rule="nonzero"></path>
                        <path d="M14,20 C12.6740571,20 11.4022857,19.4732114 10.4642286,18.5357714 C9.52673143,17.5978286 9,16.3259429 9,15 C9,13.6740571 9.52678857,12.4022857 10.4642286,11.4642286 C11.4021714,10.5267314 12.6740571,10 14,10 C15.3259429,10 16.5977143,10.5267886 17.5357714,11.4642286 C18.4732686,12.4021714 19,13.6740571 19,15 C18.9982143,16.3254857 18.4709829,17.5964571 17.5339429,18.5339429 C16.5964457,19.4709943 15.3254857,19.9981714 14,20 Z M14,12 C13.2044686,12 12.4410286,12.3160686 11.8786286,12.8785714 C11.3162286,13.4410743 11.0000571,14.2045143 11.0000571,14.9999429 C11.0000571,15.7953714 11.3161257,16.5589143 11.8786286,17.1213143 C12.4411314,17.6837143 13.2045714,17.9998857 14,17.9998857 C14.7954286,17.9998857 15.5589714,17.6838171 16.1213714,17.1213143 C16.6837714,16.5588114 16.9999429,15.7953714 16.9999429,14.9999429 C16.9999429,14.2045143 16.6838743,13.4409714 16.1213714,12.8785714 C15.5588686,12.3161714 14.7954286,12 14,12 L14,12 Z" id="Shape" fill="#000000" fill-rule="nonzero"></path>
                        <path d="M15.8571444,38 L14,38 L14,34.2857113 C14,33.7729272 14.4157881,33.3571391 14.9285722,33.3571391 L16.2899121,33.3571391 C16.4532453,32.8385501 16.6621687,32.3357097 16.9137958,31.853595 L15.949991,30.8897901 C15.587678,30.5274772 15.587678,29.9396644 15.949991,29.5769482 L18.5769482,26.949991 C18.9396751,26.587678 19.5274878,26.587678 19.8897901,26.949991 L20.853595,27.9129681 C21.3357097,27.6613409 21.8385395,27.4528314 22.3571391,27.2899121 L22.3571391,25.9285722 C22.3571391,25.4157881 22.7729272,25 23.2857113,25 L27,25 L27,26.8571444 L24.2142834,26.8571444 L24.2142834,27.9992351 C24.214698,28.433255 23.9145722,28.8092472 23.4917375,28.905426 C22.6779899,29.0907266 21.901173,29.4132436 21.1955642,29.8592872 C20.8282848,30.0910164 20.349895,30.0371274 20.0431796,29.7303696 L19.2335814,28.9207714 L17.9207395,30.2336133 L18.7303377,31.0432115 C19.0370955,31.3499693 19.0909846,31.8283484 18.8592554,32.1955961 C18.4132118,32.9011411 18.0906948,33.6780218 17.9053942,34.4917694 C17.8092207,34.914604 17.4332338,35.2147292 16.9992033,35.2143153 L15.8571125,35.2143153 L15.8571444,38 Z" id="Path" fill="#000000" fill-rule="nonzero"></path>
                        <path d="M22,37 L20,37 C20.0017857,35.6745143 20.5290171,34.4035429 21.4660571,33.4660571 C22.4035543,32.5290057 23.6745143,32.0018286 25,32 L25,34 C24.2044686,34 23.4410286,34.3160686 22.8786286,34.8785714 C22.3162286,35.4410743 22.0000571,36.2045143 22.0000571,36.9999429 L22,37 Z" id="Path" fill="#000000" fill-rule="nonzero"></path>
                        <path d="M41.5,47 C38.7152364,47 36.0445818,45.8937091 34.0753818,43.9246182 C32.1061818,41.9554182 31,39.2848727 31,36.5 C31,33.7151273 32.1062909,31.0445818 34.0753818,29.0753818 C36.0445818,27.1061818 38.7151273,26 41.5,26 C44.2848727,26 46.9554182,27.1062909 48.9246182,29.0753818 C50.8938182,31.0445818 52,33.7151273 52,36.5 C51.9965909,39.284 50.8894545,41.9523636 48.9211273,43.9211273 C46.9523636,45.8894545 44.2838909,46.9965091 41.5,47 L41.5,47 Z M41.5,27.9090909 C39.2214182,27.9090909 37.0362182,28.8142073 35.4253818,30.4253818 C33.8141091,32.0362182 32.9090909,34.2214182 32.9090909,36.5 C32.9090909,38.7785818 33.8142073,40.9637818 35.4253818,42.5746182 C37.0362182,44.1858909 39.2214182,45.0909091 41.5,45.0909091 C43.7785818,45.0909091 45.9637818,44.1857927 47.5746182,42.5746182 C49.1858909,40.9637818 50.0909091,38.7785818 50.0909091,36.5 C50.0879261,34.2222909 49.1819636,32.0387273 47.5715636,30.4284364 C45.9611636,28.8181455 43.7777091,27.9121455 41.5,27.9090909 L41.5,27.9090909 Z" id="Shape" fill="#000000" fill-rule="nonzero"></path>
                        <path d="M40.6249886,44 C40.3763764,44 40.1378039,43.9021563 39.9620192,43.728047 L35.2743568,39.0851169 C34.9085477,38.7223846 34.9085477,38.1345632 35.2743568,37.7718309 L38.0869543,34.9860729 C38.4531812,34.6237545 39.0466661,34.6237545 39.4128931,34.9860729 L40.624935,36.1869734 L45.5871069,31.2721533 L45.5871069,31.2717388 C45.9533339,30.9094204 46.5468188,30.9094204 46.9130457,31.2717388 L49.7256432,34.0574968 C50.0914523,34.4202291 50.0914523,35.0080505 49.7256432,35.3707828 L41.2878509,43.728057 C41.1120662,43.9021642 40.8734937,44 40.6248815,44 L40.6249886,44 Z M37.2628364,38.4284739 L40.6249886,41.7585426 L47.7372707,34.7141298 L46.2501835,33.2412332 L41.2880116,38.1560533 L41.2880116,38.1564678 C40.9217846,38.5187862 40.3282998,38.5187862 39.9620728,38.1564678 L38.7500308,36.9555673 L37.2628364,38.4284739 Z" id="Shape" fill="#000000" fill-rule="nonzero"></path>
                        <polygon id="Path" fill="#000000" fill-rule="nonzero" points="54 4 56 4 56 6 54 6"></polygon>
                        <polygon id="Path" fill="#000000" fill-rule="nonzero" points="39 4 51 4 51 6 39 6"></polygon>
                    </g>
                </g>
            </g>
        </g>
    </g>
</svg>