<svg width="57" height="60" viewBox="0 0 57 60" xmlns="http://www.w3.org/2000/svg">
    <defs>
        <filter color-interpolation-filters="auto" id="a">
            <feColorMatrix in="SourceGraphic" values="0 0 0 0 0.258824 0 0 0 0 0.521569 0 0 0 0 0.956863 0 0 0 1.000000 0"/>
        </filter>
    </defs>
    <g transform="translate(-111 -13)" filter="url(#a)" fill="none" fill-rule="evenodd">
        <g transform="translate(111 13)" fill="#FFF" fill-rule="nonzero">
            <path d="M23.733 54h3.534c.405 0 .733-.448.733-1s-.328-1-.733-1h-3.534c-.405 0-.733.448-.733 1s.328 1 .733 1zM21.945 8h7.11c.522 0 .945-.448.945-1s-.423-1-.945-1h-7.11C21.423 6 21 6.448 21 7s.423 1 .945 1z"/>
            <circle cx="19" cy="7" r="1"/>
            <circle cx="32" cy="7" r="1"/>
            <circle cx="26" cy="45" r="1"/>
            <circle cx="19" cy="45" r="1"/>
            <circle cx="31" cy="45" r="1"/>
            <path d="M41.795 14h2.41c.44 0 .795-.366.795-.818a.807.807 0 0 0-.795-.818H42.59V9.818A.807.807 0 0 0 41.795 9a.807.807 0 0 0-.795.818v3.364c0 .452.356.818.795.818zM27.669 19H22.33C18.841 19 16 22.081 16 25.869c0 2.673 1.447 5.122 3.687 6.24a.483.483 0 0 1 .253.436v2.124c0 .522.289.998.736 1.212.167.08.342.119.515.119.292 0 .58-.11.812-.325l3.085-2.837a.37.37 0 0 1 .25-.1h2.33c3.492 0 6.332-3.082 6.332-6.87C34 22.082 31.16 19 27.669 19zm0 11.91h-2.332c-.509 0-1.002.197-1.389.552l-2.275 2.092v-1.009c0-.89-.488-1.71-1.244-2.086-1.637-.818-2.695-2.62-2.695-4.59 0-2.78 2.062-5.042 4.597-5.042h5.338c2.535 0 4.597 2.261 4.597 5.042 0 2.78-2.062 5.042-4.597 5.042z"/>
            <path d="M27.327 22h-3.654c-.372 0-.673.448-.673 1s.301 1 .673 1h3.654c.372 0 .673-.448.673-1s-.301-1-.673-1zM26.15 26h-3.3c-.47 0-.85.448-.85 1s.38 1 .85 1h3.3c.47 0 .85-.448.85-1s-.38-1-.85-1zM56.942 28.926c-.384-3.075-2.788-5.55-5.717-5.885A6.45 6.45 0 0 0 50.5 23c-1.736 0-3.367.712-4.594 2.004C44.676 26.298 44 28.02 44 29.85c0 1.194.297 2.37.86 3.404l4.364 7.969c.267.487.744.777 1.276.777s1.009-.29 1.276-.777l4.363-7.969a7.14 7.14 0 0 0 .803-4.328zm-2.221 3.458-4.221 7.71-4.221-7.71a5.314 5.314 0 0 1-.64-2.534c0-1.365.505-2.649 1.422-3.614.918-.967 2.14-1.5 3.439-1.5.182 0 .367.011.55.032 2.187.25 3.982 2.094 4.267 4.386a5.33 5.33 0 0 1-.596 3.23z"/>
            <path d="M50.5 27a2.503 2.503 0 0 0-2.5 2.5c0 1.379 1.122 2.5 2.5 2.5 1.379 0 2.5-1.122 2.5-2.5S51.878 27 50.5 27zm0 3.529a1.03 1.03 0 0 1 0-2.058 1.03 1.03 0 0 1 0 2.058zM40.799 47.191a1.066 1.066 0 0 0-1.197-.015c-.371.24-.602.692-.602 1.179v6.29c0 .487.23.939.602 1.179.182.117.384.176.587.176.211 0 .422-.064.61-.191l4.622-3.146c.362-.247.579-.681.579-1.163s-.217-.917-.58-1.163L40.8 47.19zm-.1 6.431v-4.244l3.118 2.122-3.118 2.122zM7.407 13.615c.652-.67 2.364-2.447 3.633-3.765 1.28-1.333 1.28-3.503 0-4.836A3.252 3.252 0 0 0 8.676 4c-.81 0-1.573.294-2.176.833A3.243 3.243 0 0 0 4.324 4c-.897 0-1.736.36-2.364 1.014C.68 6.347.68 8.517 1.96 9.85c1.269 1.317 2.98 3.093 3.633 3.764a1.257 1.257 0 0 0 1.814 0zM3.235 8.609a1.715 1.715 0 0 1 0-2.354 1.5 1.5 0 0 1 2.177 0l.45.47a.884.884 0 0 0 1.276 0l.45-.47a1.499 1.499 0 0 1 2.177 0 1.715 1.715 0 0 1 0 2.353A2035.677 2035.677 0 0 1 6.5 11.994c-.794-.82-2.19-2.268-3.265-3.385z"/>
            <path d="M48.544 44.055h-7.667V20.53c.52.117 1.058.18 1.611.18 4.057 0 7.357-3.32 7.357-7.402 0-4.082-3.3-7.402-7.357-7.402a7.31 7.31 0 0 0-1.61.18v-.813a2.576 2.576 0 0 0-2.566-2.582h-21.66V1.465C16.652.657 15.999 0 15.196 0H1.456C.653 0 0 .657 0 1.465v14.343c0 .808.653 1.465 1.456 1.465h3.036a.876.876 0 0 0 .874-.88.876.876 0 0 0-.874-.878H1.747V1.758h13.158v13.757H8.646a.876.876 0 0 0-.873.879c0 .485.39.879.873.879h1.59v25.101h-7.21c-.802 0-1.455.657-1.455 1.465v8.958c0 .808.653 1.465 1.456 1.465h7.21v1.427a2.576 2.576 0 0 0 2.565 2.582h21.822v.264c0 .808.653 1.465 1.456 1.465h12.464c.803 0 1.456-.657 1.456-1.465v-3.574a.876.876 0 0 0-.873-.879.876.876 0 0 0-.874.879v3.281H36.371V45.813h11.882v4.968c0 .486.391.88.874.88a.876.876 0 0 0 .873-.88v-5.26c0-.809-.653-1.466-1.456-1.466zm-.446-30.747c0 3.113-2.517 5.645-5.61 5.645-3.093 0-5.61-2.532-5.61-5.645 0-3.112 2.517-5.645 5.61-5.645 3.093 0 5.61 2.533 5.61 5.645zM38.312 4.45c.451 0 .819.37.819.824v1.452a7.421 7.421 0 0 0-3.799 4.875h-18.68V4.45h21.66zM13.537 44.132l-4.395 3.92-4.396-3.92h8.791zm-10.22 8.372v-7.297l4.866 4.34a1.436 1.436 0 0 0 1.917 0l4.866-4.34v7.297H3.318zm31.307 4.009H12.802a.822.822 0 0 1-.819-.824v-1.427h3.274c.803 0 1.456-.657 1.456-1.465v-4.015h17.911v7.731zm1.622-15.543h2.885v3.085H36.08c-.803 0-1.456.657-1.456 1.465v1.504H16.713V43.84c0-.808-.653-1.465-1.456-1.465h-3.274V40.97h20.148a.876.876 0 0 0 .874-.879.876.876 0 0 0-.874-.878H11.983v-21.94h3.213c.803 0 1.456-.657 1.456-1.465v-2.45h18.481a7.413 7.413 0 0 0 3.998 6.533v19.322h-2.885a.876.876 0 0 0-.874.879c0 .485.391.878.874.878z"/>
        </g>
    </g>
</svg>
