<svg xmlns="http://www.w3.org/2000/svg" width="24" height="24" viewBox="0 0 24 24">
    <g fill="none" fill-rule="evenodd">
        <g fill="#FFF" fill-rule="nonzero">
            <g>
                <path d="M22.917 0c-.279.007-.544.124-.738.325L12 10.505 1.82.325c-.199-.205-.472-.32-.758-.32-.43 0-.818.26-.98.66-.162.398-.066.856.243 1.156L10.505 12 .325 22.18c-.276.265-.387.659-.29 1.03.096.37.385.66.756.756.37.096.764-.015 1.03-.291L12 13.495l10.18 10.18c.265.276.658.387 1.029.29.37-.096.66-.385.757-.756.096-.37-.015-.764-.291-1.03L13.495 12l10.18-10.18c.314-.302.411-.766.244-1.169-.168-.402-.565-.661-1.002-.65z" transform="translate(-1842.000000, -44.000000) translate(1842.000000, 44.000000)"/>
            </g>
        </g>
    </g>
</svg>