<svg width="59" height="57" viewBox="0 0 59 57" xmlns="http://www.w3.org/2000/svg">
    <defs>
        <filter color-interpolation-filters="auto" id="a">
            <feColorMatrix in="SourceGraphic" values="0 0 0 0 0.992000 0 0 0 0 0.361000 0 0 0 0 0.388000 0 0 0 1.000000 0"/>
        </filter>
    </defs>
    <g transform="translate(-114 -12)" filter="url(#a)" fill="none" fill-rule="evenodd">
        <g fill="#FFF" fill-rule="nonzero">
            <path d="M168.642 22.517a.874.874 0 0 0-1.085-.599.882.882 0 0 0-.594 1.093c.19.657.287 1.34.287 2.032a7.295 7.295 0 0 1-.972 3.645 7.326 7.326 0 0 1-2.565 2.61l-.366.22a.882.882 0 0 0-.428.756v1.113h-2.045v-3.581a2.46 2.46 0 0 0 1.611-2.31v-1.924a2.452 2.452 0 0 0-2.44-2.46h-.09a2.452 2.452 0 0 0-2.44 2.46v1.924c0 1.062.673 1.966 1.61 2.31v3.58h-2.044v-1.112a.883.883 0 0 0-.428-.757l-.366-.22a7.319 7.319 0 0 1-2.565-2.61 7.295 7.295 0 0 1-.973-3.644c0-4.015 3.253-7.281 7.25-7.281 1.898 0 3.695.735 5.058 2.069a.87.87 0 0 0 1.237-.018.885.885 0 0 0-.018-1.246A8.928 8.928 0 0 0 160 16c-4.963 0-9 4.057-9 9.043 0 1.593.419 3.16 1.21 4.53a9.082 9.082 0 0 0 3.122 3.202v.755a1.408 1.408 0 0 0-.787 1.264v4.028c0 .776.626 1.407 1.396 1.407h1.3v1.238c0 .846.682 1.533 1.522 1.533h2.474c.839 0 1.522-.687 1.522-1.533V40.23h1.3c.77 0 1.397-.631 1.397-1.407v-4.028c0-.556-.322-1.035-.788-1.264v-.755a9.082 9.082 0 0 0 3.122-3.201 9.073 9.073 0 0 0 .852-7.057zm-9.378 3.055c0-.385.31-.697.69-.697h.091c.381 0 .69.312.69.697v1.924c0 .384-.309.697-.69.697h-.09a.694.694 0 0 1-.69-.697v-1.924zm1.745 15.666h-2.019V40.23h2.02v1.01zm2.697-2.77h-7.412v-3.32h7.412v3.32zM160 15c.553 0 1-.367 1-.82v-1.36c0-.453-.447-.82-1-.82-.553 0-1 .367-1 .82v1.36c0 .453.448.82 1 .82zM154.857 15.495c.186.317.595.505 1.023.505.153 0 .309-.024.457-.074.565-.193.818-.698.565-1.128l-.76-1.293c-.252-.43-.915-.623-1.48-.43-.564.192-.817.697-.564 1.128l.76 1.292zM149.309 16.686l1.147 1.068a.904.904 0 0 0 1.308-.076.995.995 0 0 0-.073-1.364l-1.147-1.068a.9.9 0 0 0-1.308.076.994.994 0 0 0 .073 1.364zM147.582 22.335l1.325.608c.085.038.171.057.256.057.354 0 .683-.323.797-.831.141-.63-.101-1.303-.542-1.505l-1.325-.606c-.44-.202-.912.144-1.053.773-.14.63.102 1.303.542 1.504zM146.82 28c.03 0 .06-.002.09-.006l1.358-.165c.45-.054.776-.507.727-1.01-.049-.504-.453-.869-.905-.813l-1.357.164c-.451.055-.777.508-.728 1.011.046.47.402.819.816.819zM149.434 31.029c-.417.293-.558.941-.315 1.446.162.337.455.525.755.525.15 0 .3-.046.439-.144l1.253-.884c.417-.295.558-.942.315-1.446-.243-.505-.777-.676-1.194-.382l-1.253.885zM163.662 15.925c.15.051.304.075.458.075.427 0 .836-.188 1.022-.505l.76-1.292c.253-.43 0-.936-.565-1.128-.564-.193-1.227 0-1.48.43l-.759 1.292c-.253.43 0 .936.564 1.128zM168.927 18c.22 0 .44-.081.617-.246l1.147-1.068a.994.994 0 0 0 .073-1.364.9.9 0 0 0-1.308-.076l-1.147 1.068a.995.995 0 0 0-.073 1.364.908.908 0 0 0 .691.322zM169.04 22.169c.114.508.443.831.797.831.085 0 .171-.019.256-.057l1.325-.608c.44-.201.683-.874.542-1.504-.141-.629-.613-.975-1.053-.773l-1.325.606c-.44.202-.683.876-.542 1.505zM172.268 26.17l-1.358-.164c-.451-.057-.856.309-.905.812-.049.505.277.957.728 1.012l1.357.165c.03.003.06.005.09.005.413 0 .77-.348.815-.818.05-.504-.276-.956-.727-1.011zM171.566 31.028l-1.253-.884c-.417-.294-.951-.124-1.194.381s-.102 1.152.315 1.447l1.253.884c.139.098.29.144.44.144.3 0 .592-.188.754-.526.243-.504.102-1.152-.315-1.446zM122.906 32h9.188c.5 0 .906-.448.906-1 0-.553-.406-1-.906-1h-9.188c-.5 0-.906.447-.906 1 0 .552.406 1 .906 1zM119.884 54h17.232c.488 0 .884-.447.884-1 0-.552-.396-1-.884-1h-17.232c-.488 0-.884.448-.884 1 0 .553.396 1 .884 1zM148 45c0-2.757-2.243-5-5-5s-5 2.243-5 5 2.243 5 5 5 5-2.243 5-5zm-5-3.314a3.317 3.317 0 0 1 3.308 3.14 3.317 3.317 0 0 1-3.719-3.113c.135-.017.272-.027.41-.027zM139.687 45a3.31 3.31 0 0 1 1.283-2.616 5.007 5.007 0 0 0 4.927 4.155h.036A3.316 3.316 0 0 1 143 48.314 3.317 3.317 0 0 1 139.687 45z"/>
            <path d="m164.199 58.635-4.427-2.375c-.59-.316-1.54-.554-2.21-.554h-15.208v-2.733c.227.01.455.018.683.018 5.205 0 10.05-2.763 12.646-7.212a1.45 1.45 0 0 0 0-1.459c-2.595-4.448-7.44-7.21-12.646-7.21-.228 0-.456.006-.683.017V26.434c0-.79-.654-1.434-1.457-1.434h-16.054a.867.867 0 0 0-.875.86c0 .476.391.861.875.861h15.762v10.591c-.626.105-1.241.25-1.843.433v-.752c0-.792-.654-1.435-1.458-1.435H119.05c-.804 0-1.458.643-1.458 1.435V48.98c0 .79.654 1.434 1.458 1.434h15.669a14.762 14.762 0 0 0 5.886 2.373v2.918H130.09c-.668 0-1.251.354-1.57.88h-8.863a.868.868 0 0 0-.874.861c0 .476.392.86.874.86h8.604v2.36h-8.604a.867.867 0 0 0-.874.86c0 .476.392.861.874.861h8.618a1.82 1.82 0 0 0 1.815 1.586h10.515v3.305H115.75V26.721h4.897a.867.867 0 0 0 .874-.86.867.867 0 0 0-.874-.861h-5.189c-.803 0-1.457.644-1.457 1.434v41.132c0 .79.654 1.434 1.457 1.434h25.44c.803 0 1.457-.643 1.457-1.434v-3.592h15.208c.67 0 1.62-.238 2.21-.554l4.427-2.375c.51-.274.801-.712.801-1.205 0-.492-.292-.931-.801-1.205zm-30.405 3.618h-3.704c-.042 0-.08-.036-.08-.076v-4.674c0-.04.038-.076.08-.076h3.704v4.826zm-14.453-13.56V37.28h17.672v1.12a14.534 14.534 0 0 0-6.62 5.921 1.45 1.45 0 0 0 0 1.46 14.315 14.315 0 0 0 2.25 2.914h-13.302zm12.643-3.643c2.301-3.84 6.523-6.22 11.054-6.22 4.53 0 8.752 2.38 11.053 6.22-2.302 3.84-6.523 6.22-11.053 6.22-4.53 0-8.752-2.379-11.054-6.22zm24.32 13.93h-3.597a.867.867 0 0 0-.874.86c0 .476.391.86.874.86h3.596v1.553h-20.76v-1.552h13.084a.867.867 0 0 0 .874-.86.868.868 0 0 0-.874-.861h-13.085v-1.553h20.761v1.553zm3.626 2.395-.995.534c-.211.113-.56.222-.883.286v-4.71c.323.064.672.173.883.286l.995.534v3.07zm1.75-.938v-1.193l1.11.596-1.11.597z"/>
        </g>
    </g>
</svg>
