<svg width="55" height="56" viewBox="0 0 55 56" xmlns="http://www.w3.org/2000/svg">
    <defs>
        <filter color-interpolation-filters="auto" id="a">
            <feColorMatrix in="SourceGraphic" values="0 0 0 0 1.000000 0 0 0 0 0.733000 0 0 0 0 0.000000 0 0 0 1.000000 0"/>
        </filter>
    </defs>
    <g transform="translate(-112 -19)" filter="url(#a)" fill="none" fill-rule="evenodd">
        <g fill="#FFF" fill-rule="nonzero">
            <path d="M144.083 67.8h-1.833v-8.82c0-.497-.41-.9-.917-.9a.908.908 0 0 0-.916.9v8.82h-23.834v-18h7.627a.908.908 0 0 0 .917-.9c0-.497-.41-.9-.917-.9h-8.543a.908.908 0 0 0-.917.9v18.9h-1.833a.908.908 0 0 0-.917.9v1.8c0 2.485 2.052 4.5 4.583 4.5h23.834c2.531 0 4.583-2.015 4.583-4.5v-1.8c0-.497-.41-.9-.917-.9zm-.916 2.7c0 1.491-1.232 2.7-2.75 2.7h-1.834v-.9c0-.497-.41-.9-.916-.9a.908.908 0 0 0-.917.9v.9h-16.5v-.9c0-.497-.41-.9-.917-.9a.908.908 0 0 0-.916.9v.9h-1.834c-1.518 0-2.75-1.209-2.75-2.7v-.9h29.334v.9zM160 24.8h2c.552 0 1-.403 1-.9s-.448-.9-1-.9h-2c-1.657 0-3 1.209-3 2.7v.9h-1c-.552 0-1 .403-1 .9s.448.9 1 .9h1v2.7c0 .497.448.9 1 .9s1-.403 1-.9v-2.7h1c.552 0 1-.403 1-.9s-.448-.9-1-.9h-1v-.9c0-.497.448-.9 1-.9z"/>
            <path d="M164.333 20h-10.666A2.667 2.667 0 0 0 151 22.667v1.777a.889.889 0 1 0 1.778 0v-1.777c0-.491.398-.89.889-.89h10.666c.491 0 .89.399.89.89v10.666c0 .491-.399.89-.89.89h-10.666a.889.889 0 0 1-.89-.89V28A.889.889 0 1 0 151 28v5.333A2.667 2.667 0 0 0 153.667 36h10.666A2.667 2.667 0 0 0 167 33.333V22.667A2.667 2.667 0 0 0 164.333 20zM155 56a4 4 0 1 0 8 0 4 4 0 0 0-8 0zm6 0a2 2 0 1 1-4 0 2 2 0 0 1 4 0z"/>
            <path d="M164.333 48h-10.666A2.667 2.667 0 0 0 151 50.667v10.666A2.667 2.667 0 0 0 153.667 64h10.666A2.667 2.667 0 0 0 167 61.333v-1.777a.889.889 0 1 0-1.778 0v1.777c0 .491-.398.89-.889.89h-10.666a.889.889 0 0 1-.89-.89V50.667c0-.491.399-.89.89-.89h10.666c.491 0 .89.399.89.89V56A.889.889 0 1 0 167 56v-5.333A2.667 2.667 0 0 0 164.333 48zM132.47 30.85a1.001 1.001 0 0 0 .981.04l6.005-3.001a1 1 0 0 0 0-1.78l-6.005-3.002a1.001 1.001 0 0 0-1.451.89V30a1 1 0 0 0 .47.85zm1.531-5.232 2.763 1.38L134 28.38v-2.761z"/>
            <path d="M135 35a8 8 0 1 0 0-16 8 8 0 0 0 0 16zm0-14.222a6.222 6.222 0 1 1 0 12.444 6.222 6.222 0 0 1 0-12.444zM143.8 39c.252 0 .489-.148.64-.4l2.4-4c.265-.442.193-1.069-.16-1.4-.353-.331-.855-.242-1.12.2l-2.4 4c-.265.442-.193 1.069.16 1.4.139.13.307.2.48.2zM145.2 42.68c.189.201.485.32.8.32.216 0 .427-.056.6-.16l4-2.4c.442-.265.531-.766.2-1.12-.331-.353-.958-.425-1.4-.16l-4 2.4c-.442.265-.531.767-.2 1.12zM154.98 43.816c-.04-.266-.17-.5-.361-.65a.74.74 0 0 0-.649-.143l-4.208.99c-.465.056-.804.543-.758 1.09.047.548.461.947.926.892h.168l4.209-.99a.846.846 0 0 0 .552-.426c.127-.224.17-.5.121-.763zM112.929 44h11.142c.513 0 .929-.398.929-.889V28.89c0-.491-.416-.889-.929-.889H112.93c-.513 0-.929.398-.929.889V43.11c0 .491.416.889.929.889zm.928-14.222h9.286v12.444h-9.286V29.778z"/>
            <path d="M120.25 32h-1.5c-.414 0-.75.448-.75 1s.336 1 .75 1h1.5c.414 0 .75-.448.75-1s-.336-1-.75-1zM120 36h-4a1 1 0 0 0 0 2h4a1 1 0 0 0 0-2zM120 39h-4a1 1 0 0 0 0 2h4a1 1 0 0 0 0-2zM143.398 44.292a.9.9 0 0 0-.782-.467.9.9 0 0 0-.784.464.957.957 0 0 0-.001.932l3.972 7.088-14.412 5.574h-.135l-2.342 1.393-1.558.929a1.754 1.754 0 0 1-1.37.186 1.81 1.81 0 0 1-1.09-.864l-1.801-3.214c-.44-.873-.144-1.949.676-2.453l3.116-1.858 2.252 4.023c.162.288.46.466.784.464a.896.896 0 0 0 .782-.463.954.954 0 0 0 .001-.93l-2.324-4.143 11.305-9.615.37.66a.89.89 0 0 0 1.233.344.948.948 0 0 0 .333-1.273l-.9-1.607a.902.902 0 0 0-.622-.446.88.88 0 0 0-.738.195l-12.611 10.72-3.837 2.285c-1.416.85-2.097 2.58-1.658 4.208l-.9.53c-.95.562-1.476 1.659-1.334 2.778.142 1.12.925 2.04 1.982 2.33.23.063.466.095.703.094.474-.002.939-.13 1.35-.372l.902-.53c.432.462.977.795 1.576.967.308.088.626.132.946.13a3.467 3.467 0 0 0 1.801-.502l.784-.464 1.801 3.223c.746 1.33 2.393 1.786 3.685 1.022a2.777 2.777 0 0 0 1.26-1.693 2.863 2.863 0 0 0-.27-2.116l-1.639-2.944 13.511-5.23a.916.916 0 0 0 .532-.558.955.955 0 0 0-.063-.77l-4.486-8.027zm-21.276 15.876a.877.877 0 0 1-.684.093.904.904 0 0 1-.55-.428.954.954 0 0 1-.09-.706.926.926 0 0 1 .423-.566l.784-.465.9 1.607-.783.465zm11.854 2.6c.12.214.152.468.09.707a.925.925 0 0 1-.423.557.886.886 0 0 1-1.225-.334l-1.802-3.224 1.496-.882h.072l1.792 3.177z"/>
        </g>
    </g>
</svg>
