<svg width="67" height="45" viewBox="0 0 67 45" xmlns="http://www.w3.org/2000/svg">
    <defs>
        <filter color-interpolation-filters="auto" id="a">
            <feColorMatrix in="SourceGraphic" values="0 0 0 0 0.965000 0 0 0 0 0.325000 0 0 0 0 0.078000 0 0 0 1.000000 0"/>
        </filter>
    </defs>
    <g transform="translate(-107 -28)" filter="url(#a)" fill="none" fill-rule="evenodd">
        <path d="m120.208 58.448 2.35-7.041a.156.156 0 0 1 .294 0l4.301 12.886a.412.412 0 0 1-.392.541h-2.954c-.97 0-1.828-.616-2.134-1.533l-1.465-4.39a.732.732 0 0 1 0-.463zm-7.655 6.386h2.954c.97 0 1.828-.616 2.134-1.533l4.456-13.356a.304.304 0 0 0-.29-.4h-4.345a.525.525 0 0 0-.498.358l-4.803 14.39a.412.412 0 0 0 .392.541zm27.275-13.136h7.816c.617 0 1.117-.497 1.117-1.111s-.5-1.112-1.117-1.112h-7.816c-.617 0-1.117.498-1.117 1.112 0 .614.5 1.111 1.117 1.111zm12.283 0h15.633c.616 0 1.117-.497 1.117-1.111s-.5-1.112-1.117-1.112h-15.633c-.617 0-1.117.498-1.117 1.112 0 .614.5 1.111 1.117 1.111zm15.633 2.225h-6.7c-.617 0-1.116.498-1.116 1.112 0 .614.5 1.112 1.116 1.112h6.7c.616 0 1.117-.498 1.117-1.112 0-.614-.5-1.112-1.117-1.112zm-27.916 2.224h16.75c.616 0 1.116-.498 1.116-1.112 0-.614-.5-1.112-1.116-1.112h-16.75c-.617 0-1.117.498-1.117 1.112 0 .614.5 1.112 1.117 1.112zm27.916 2.224h-15.633c-.617 0-1.117.497-1.117 1.111 0 .615.5 1.113 1.117 1.113h15.633c.616 0 1.117-.498 1.117-1.113 0-.614-.5-1.111-1.117-1.111zm-27.916 2.224h7.816c.617 0 1.117-.498 1.117-1.113 0-.614-.5-1.111-1.117-1.111h-7.816c-.617 0-1.117.497-1.117 1.111 0 .615.5 1.113 1.117 1.113zm0 4.447h12.283c.617 0 1.116-.497 1.116-1.111 0-.615-.5-1.113-1.116-1.113h-12.283c-.617 0-1.117.498-1.117 1.113 0 .614.5 1.111 1.117 1.111zM174 32.448v36.104c0 2.457-2 4.448-4.467 4.448h-58.066C109 73 107 71.009 107 68.552V32.448c0-2.457 2-4.448 4.467-4.448h58.066C172 28 174 29.991 174 32.448zm-22.333 3.51c0 1.841 1.5 3.335 3.35 3.335h11.166c1.85 0 3.35-1.494 3.35-3.335 0-1.842-1.5-3.336-3.35-3.336h-11.166a3.344 3.344 0 0 0-3.35 3.336zm-22.334 0c0 1.841 1.5 3.335 3.35 3.335s3.35-1.494 3.35-3.335c0-1.842-1.5-3.336-3.35-3.336a3.344 3.344 0 0 0-3.35 3.336zm-8.933 0a3.343 3.343 0 0 0 3.35 3.335c1.85 0 3.35-1.494 3.35-3.335 0-1.842-1.5-3.336-3.35-3.336a3.343 3.343 0 0 0-3.35 3.336zm-8.933 0a3.343 3.343 0 0 0 3.35 3.335c1.85 0 3.35-1.494 3.35-3.335 0-1.842-1.5-3.336-3.35-3.336a3.343 3.343 0 0 0-3.35 3.336zm60.3 7.783h-62.534v24.811c0 1.229 1 2.224 2.234 2.224h58.066a2.228 2.228 0 0 0 2.234-2.224v-24.81z" fill="#FFF" fill-rule="nonzero"/>
    </g>
</svg>
